<?xml version="1.0" encoding="UTF-8" standalone="no"?>
<!DOCTYPE svg PUBLIC "-//W3C//DTD SVG 1.1//EN"
 "http://www.w3.org/Graphics/SVG/1.1/DTD/svg11.dtd">
<!-- Generated by graphviz version 12.2.1 (20241206.2353)
 -->
<!-- Title: src/queues.h Pages: 1 -->
<!--zoomable 83 -->

<svg id="main" version="1.1" xmlns="http://www.w3.org/2000/svg" xmlns:xlink="http://www.w3.org/1999/xlink" xml:space="preserve" onload="init(evt)">

<style type="text/css"><![CDATA[
.node, .edge {opacity: 0.7;}
.node.selected, .edge.selected {opacity: 1;}
.edge:hover path { stroke: red; }
.edge:hover polygon { stroke: red; fill: red; }
]]></style>

<defs>
  <circle id="rim" cx="0" cy="0" r="7"/>
  <circle id="rim2" cx="0" cy="0" r="3.5"/>
  <g id="zoomPlus">
    <use xlink:href="#rim" fill="#404040"><set attributeName="fill" to="#808080" begin="zoomplus.mouseover" end="zoomplus.mouseout"/></use>
    <path d="M-4,0h8M0,-4v8" fill="none" stroke="white" stroke-width="1.5" pointer-events="none"/>
  </g>
  <g id="zoomMin">
    <use xlink:href="#rim" fill="#404040"><set attributeName="fill" to="#808080" begin="zoomminus.mouseover" end="zoomminus.mouseout"/></use>
    <path d="M-4,0h8" fill="none" stroke="white" stroke-width="1.5" pointer-events="none"/>
  </g>
  <g id="arrowUp" transform="translate(30 24)">
    <use xlink:href="#rim"/>
    <path pointer-events="none" fill="none" stroke="white" stroke-width="1.5" d="M0,-3.0v7 M-2.5,-0.5L0,-3.0L2.5,-0.5"/>
  </g>
  <g id="arrowRight" transform="rotate(90) translate(36 -43)">
    <use xlink:href="#rim"/>
    <path pointer-events="none" fill="none" stroke="white" stroke-width="1.5" d="M0,-3.0v7 M-2.5,-0.5L0,-3.0L2.5,-0.5"/>
  </g>
  <g id="arrowDown" transform="rotate(180) translate(-30 -48)">
    <use xlink:href="#rim"/>
    <path pointer-events="none" fill="none" stroke="white" stroke-width="1.5" d="M0,-3.0v7 M-2.5,-0.5L0,-3.0L2.5,-0.5"/>
  </g>
  <g id="arrowLeft" transform="rotate(270) translate(-36 17)">
    <use xlink:href="#rim"/>
    <path pointer-events="none" fill="none" stroke="white" stroke-width="1.5" d="M0,-3.0v7 M-2.5,-0.5L0,-3.0L2.5,-0.5"/>
  </g>
  <g id="resetDef">
    <use xlink:href="#rim2" fill="#404040"><set attributeName="fill" to="#808080" begin="reset.mouseover" end="reset.mouseout"/></use>
  </g>
</defs>
<script type="application/ecmascript">
var viewWidth = 671;
var viewHeight = 83;
var sectionId = 'dynsection-1';
</script>
<script type="application/ecmascript" xlink:href="svg.min.js"/>
<svg id="graph" class="graph">
<g id="viewport">
<title>src/queues.h</title>
<!-- Node1 -->
<g id="Node000001" class="node">
<title>Node1</title>
<g id="a_Node000001"><a xlink:title="Queues for history, waiting and displayed notifications.">
<polygon fill="#999999" stroke="#666666" points="348,-74.5 275.75,-74.5 275.75,-55.25 348,-55.25 348,-74.5"/>
<text text-anchor="middle" x="311.88" y="-61" font-family="Helvetica,sans-Serif" font-size="10.00">src/queues.h</text>
</a>
</g>
</g>
<!-- Node2 -->
<g id="Node000002" class="node">
<title>Node2</title>
<g id="a_Node000002"><a xlink:href="dbus_8c.html" target="_top" xlink:title=" ">
<polygon fill="white" stroke="#666666" points="61.75,-19.25 0,-19.25 0,0 61.75,0 61.75,-19.25"/>
<text text-anchor="middle" x="30.88" y="-5.75" font-family="Helvetica,sans-Serif" font-size="10.00">src/dbus.c</text>
</a>
</g>
</g>
<!-- Node1&#45;&gt;Node2 -->
<g id="edge1_Node000001_Node000002" class="edge">
<title>Node1&#45;&gt;Node2</title>
<g id="a_edge1_Node000001_Node000002"><a xlink:title=" ">
<path fill="none" stroke="#63b8ff" d="M264.14,-55.58C215.26,-46.98 137.13,-32.88 69.88,-19.25 67.29,-18.73 64.62,-18.17 61.93,-17.6"/>
<polygon fill="#63b8ff" stroke="#63b8ff" points="263.36,-59 273.82,-57.28 264.57,-52.11 263.36,-59"/>
</a>
</g>
</g>
<!-- Node3 -->
<g id="Node000003" class="node">
<title>Node3</title>
<g id="a_Node000003"><a xlink:href="draw_8c.html" target="_top" xlink:title=" ">
<polygon fill="white" stroke="#666666" points="140.38,-19.25 79.38,-19.25 79.38,0 140.38,0 140.38,-19.25"/>
<text text-anchor="middle" x="109.88" y="-5.75" font-family="Helvetica,sans-Serif" font-size="10.00">src/draw.c</text>
</a>
</g>
</g>
<!-- Node1&#45;&gt;Node3 -->
<g id="edge2_Node000001_Node000003" class="edge">
<title>Node1&#45;&gt;Node3</title>
<g id="a_edge2_Node000001_Node000003"><a xlink:title=" ">
<path fill="none" stroke="#63b8ff" d="M266.73,-51.98C228.35,-41.86 174.25,-27.6 140.66,-18.74"/>
<polygon fill="#63b8ff" stroke="#63b8ff" points="265.58,-55.29 276.14,-54.46 267.37,-48.52 265.58,-55.29"/>
</a>
</g>
</g>
<!-- Node4 -->
<g id="Node000004" class="node">
<title>Node4</title>
<g id="a_Node000004"><a xlink:href="dunst_8c.html" target="_top" xlink:title=" ">
<polygon fill="white" stroke="#666666" points="223.25,-19.25 158.5,-19.25 158.5,0 223.25,0 223.25,-19.25"/>
<text text-anchor="middle" x="190.88" y="-5.75" font-family="Helvetica,sans-Serif" font-size="10.00">src/dunst.c</text>
</a>
</g>
</g>
<!-- Node1&#45;&gt;Node4 -->
<g id="edge3_Node000001_Node000004" class="edge">
<title>Node1&#45;&gt;Node4</title>
<g id="a_edge3_Node000001_Node000004"><a xlink:title=" ">
<path fill="none" stroke="#63b8ff" d="M280.96,-50.27C259.16,-40.68 230.57,-28.09 211.5,-19.7"/>
<polygon fill="#63b8ff" stroke="#63b8ff" points="279.4,-53.41 289.96,-54.23 282.22,-47 279.4,-53.41"/>
</a>
</g>
</g>
<!-- Node5 -->
<g id="Node000005" class="node">
<title>Node5</title>
<g id="a_Node000005"><a xlink:href="input_8c.html" target="_top" xlink:title=" ">
<polygon fill="white" stroke="#666666" points="302.75,-19.25 241,-19.25 241,0 302.75,0 302.75,-19.25"/>
<text text-anchor="middle" x="271.88" y="-5.75" font-family="Helvetica,sans-Serif" font-size="10.00">src/input.c</text>
</a>
</g>
</g>
<!-- Node1&#45;&gt;Node5 -->
<g id="edge4_Node000001_Node000005" class="edge">
<title>Node1&#45;&gt;Node5</title>
<g id="a_edge4_Node000001_Node000005"><a xlink:title=" ">
<path fill="none" stroke="#63b8ff" d="M298.4,-45.94C291.75,-37.09 284.02,-26.79 278.62,-19.61"/>
<polygon fill="#63b8ff" stroke="#63b8ff" points="295.56,-47.98 304.36,-53.87 301.15,-43.77 295.56,-47.98"/>
</a>
</g>
</g>
<!-- Node6 -->
<g id="Node000006" class="node">
<title>Node6</title>
<g id="a_Node000006"><a xlink:href="menu_8c.html" target="_top" xlink:title=" ">
<polygon fill="white" stroke="#666666" points="385.25,-19.25 320.5,-19.25 320.5,0 385.25,0 385.25,-19.25"/>
<text text-anchor="middle" x="352.88" y="-5.75" font-family="Helvetica,sans-Serif" font-size="10.00">src/menu.c</text>
</a>
</g>
</g>
<!-- Node1&#45;&gt;Node6 -->
<g id="edge5_Node000001_Node000006" class="edge">
<title>Node1&#45;&gt;Node6</title>
<g id="a_edge5_Node000001_Node000006"><a xlink:title=" ">
<path fill="none" stroke="#63b8ff" d="M325.46,-46.22C332.33,-37.31 340.37,-26.87 345.96,-19.61"/>
<polygon fill="#63b8ff" stroke="#63b8ff" points="322.9,-43.82 319.57,-53.88 328.44,-48.09 322.9,-43.82"/>
</a>
</g>
</g>
<!-- Node7 -->
<g id="Node000007" class="node">
<title>Node7</title>
<g id="a_Node000007"><a xlink:href="notification_8c.html" target="_top" xlink:title=" ">
<polygon fill="white" stroke="#666666" points="490.88,-19.25 402.88,-19.25 402.88,0 490.88,0 490.88,-19.25"/>
<text text-anchor="middle" x="446.88" y="-5.75" font-family="Helvetica,sans-Serif" font-size="10.00">src/notification.c</text>
</a>
</g>
</g>
<!-- Node1&#45;&gt;Node7 -->
<g id="edge6_Node000001_Node000007" class="edge">
<title>Node1&#45;&gt;Node7</title>
<g id="a_edge6_Node000001_Node000007"><a xlink:title=" ">
<path fill="none" stroke="#63b8ff" d="M345.37,-50.66C369.81,-41.02 402.3,-28.21 423.86,-19.7"/>
<polygon fill="#63b8ff" stroke="#63b8ff" points="344.2,-47.36 336.18,-54.29 346.77,-53.87 344.2,-47.36"/>
</a>
</g>
</g>
<!-- Node8 -->
<g id="Node000008" class="node">
<title>Node8</title>
<g id="a_Node000008"><a xlink:href="queues_8c.html" target="_top" xlink:title=" ">
<polygon fill="white" stroke="#666666" points="581,-19.25 508.75,-19.25 508.75,0 581,0 581,-19.25"/>
<text text-anchor="middle" x="544.88" y="-5.75" font-family="Helvetica,sans-Serif" font-size="10.00">src/queues.c</text>
</a>
</g>
</g>
<!-- Node1&#45;&gt;Node8 -->
<g id="edge7_Node000001_Node000008" class="edge">
<title>Node1&#45;&gt;Node8</title>
<g id="a_edge7_Node000001_Node000008"><a xlink:title=" ">
<path fill="none" stroke="#63b8ff" d="M359.3,-53.04C403.39,-42.96 468.14,-28.16 508.34,-18.97"/>
<polygon fill="#63b8ff" stroke="#63b8ff" points="358.73,-49.58 349.76,-55.22 360.29,-56.4 358.73,-49.58"/>
</a>
</g>
</g>
<!-- Node9 -->
<g id="Node000009" class="node">
<title>Node9</title>
<g id="a_Node000009"><a xlink:href="x_8c.html" target="_top" xlink:title=" ">
<polygon fill="white" stroke="#666666" points="662.88,-19.25 598.88,-19.25 598.88,0 662.88,0 662.88,-19.25"/>
<text text-anchor="middle" x="630.88" y="-5.75" font-family="Helvetica,sans-Serif" font-size="10.00">src/x11/x.c</text>
</a>
</g>
</g>
<!-- Node1&#45;&gt;Node9 -->
<g id="edge8_Node000001_Node000009" class="edge">
<title>Node1&#45;&gt;Node9</title>
<g id="a_edge8_Node000001_Node000009"><a xlink:title=" ">
<path fill="none" stroke="#63b8ff" d="M359.63,-56.92C415.11,-48.68 509.33,-34.18 589.88,-19.25 592.74,-18.72 595.7,-18.14 598.68,-17.55"/>
<polygon fill="#63b8ff" stroke="#63b8ff" points="359.28,-53.44 349.9,-58.36 360.3,-60.36 359.28,-53.44"/>
</a>
</g>
</g>
</g>
</svg>

<g id="navigator" transform="translate(0 0)" fill="#404254">
  <rect fill="#f2f5e9" fill-opacity="0.5" stroke="#606060" stroke-width=".5" x="0" y="0" width="60" height="60"/>
  <use id="zoomplus" xlink:href="#zoomPlus" x="17" y="9" onmousedown="handleZoom(evt,'in')"/>
  <use id="zoomminus" xlink:href="#zoomMin" x="42" y="9" onmousedown="handleZoom(evt,'out')"/>
  <use id="reset" xlink:href="#resetDef" x="30" y="36" onmousedown="handleReset()"/>
   <use id="arrowup" xlink:href="#arrowUp" x="0" y="0" onmousedown="handlePan(0,-1)"/>
  <use id="arrowright" xlink:href="#arrowRight" x="0" y="0" onmousedown="handlePan(1,0)"/>
  <use id="arrowdown" xlink:href="#arrowDown" x="0" y="0" onmousedown="handlePan(0,1)"/>
  <use id="arrowleft" xlink:href="#arrowLeft" x="0" y="0" onmousedown="handlePan(-1,0)"/>
</g>
<svg viewBox="0 0 15 15" width="100%" height="30px" preserveAspectRatio="xMaxYMin meet">
 <g id="arrow_out" transform="scale(0.3 0.3)">
  <a xlink:href="queues_8h__dep__incl_org.svg" target="_base">
   <rect id="button" ry="5" rx="5" y="6" x="6" height="38" width="38"
        fill="#f2f5e9" fill-opacity="0.5" stroke="#606060" stroke-width="1.0"/>
   <path id="arrow"
     d="M 11.500037,31.436501 C 11.940474,20.09759 22.043105,11.32322 32.158766,21.979434 L 37.068811,17.246167 C 37.068811,17.246167 37.088388,32 37.088388,32 L 22.160133,31.978069 C 22.160133,31.978069 26.997745,27.140456 26.997745,27.140456 C 18.528582,18.264221 13.291696,25.230495 11.500037,31.436501 z"
     style="fill:#404040;"/>
  </a>
 </g>
</svg>

<style type='text/css'>
<![CDATA[
[data-mouse-over-selected='false'] { opacity: 0.7; }
[data-mouse-over-selected='true']  { opacity: 1.0; }
]]>
</style>
<script type="application/ecmascript"><![CDATA[
document.addEventListener('DOMContentLoaded', (event) => {
  highlightEdges();
  highlightAdjacentNodes();
});
]]></script>
</svg>
