<?xml version="1.0" encoding="UTF-8" standalone="no"?>
<!DOCTYPE svg PUBLIC "-//W3C//DTD SVG 1.1//EN"
 "http://www.w3.org/Graphics/SVG/1.1/DTD/svg11.dtd">
<!-- Generated by graphviz version 12.2.1 (20241206.2353)
 -->
<!-- Title: src/wayland/wl_seat.c Pages: 1 -->
<!--zoomable 315 -->

<svg id="main" version="1.1" xmlns="http://www.w3.org/2000/svg" xmlns:xlink="http://www.w3.org/1999/xlink" xml:space="preserve" onload="init(evt)">

<style type="text/css"><![CDATA[
.node, .edge {opacity: 0.7;}
.node.selected, .edge.selected {opacity: 1;}
.edge:hover path { stroke: red; }
.edge:hover polygon { stroke: red; fill: red; }
]]></style>

<defs>
  <circle id="rim" cx="0" cy="0" r="7"/>
  <circle id="rim2" cx="0" cy="0" r="3.5"/>
  <g id="zoomPlus">
    <use xlink:href="#rim" fill="#404040"><set attributeName="fill" to="#808080" begin="zoomplus.mouseover" end="zoomplus.mouseout"/></use>
    <path d="M-4,0h8M0,-4v8" fill="none" stroke="white" stroke-width="1.5" pointer-events="none"/>
  </g>
  <g id="zoomMin">
    <use xlink:href="#rim" fill="#404040"><set attributeName="fill" to="#808080" begin="zoomminus.mouseover" end="zoomminus.mouseout"/></use>
    <path d="M-4,0h8" fill="none" stroke="white" stroke-width="1.5" pointer-events="none"/>
  </g>
  <g id="arrowUp" transform="translate(30 24)">
    <use xlink:href="#rim"/>
    <path pointer-events="none" fill="none" stroke="white" stroke-width="1.5" d="M0,-3.0v7 M-2.5,-0.5L0,-3.0L2.5,-0.5"/>
  </g>
  <g id="arrowRight" transform="rotate(90) translate(36 -43)">
    <use xlink:href="#rim"/>
    <path pointer-events="none" fill="none" stroke="white" stroke-width="1.5" d="M0,-3.0v7 M-2.5,-0.5L0,-3.0L2.5,-0.5"/>
  </g>
  <g id="arrowDown" transform="rotate(180) translate(-30 -48)">
    <use xlink:href="#rim"/>
    <path pointer-events="none" fill="none" stroke="white" stroke-width="1.5" d="M0,-3.0v7 M-2.5,-0.5L0,-3.0L2.5,-0.5"/>
  </g>
  <g id="arrowLeft" transform="rotate(270) translate(-36 17)">
    <use xlink:href="#rim"/>
    <path pointer-events="none" fill="none" stroke="white" stroke-width="1.5" d="M0,-3.0v7 M-2.5,-0.5L0,-3.0L2.5,-0.5"/>
  </g>
  <g id="resetDef">
    <use xlink:href="#rim2" fill="#404040"><set attributeName="fill" to="#808080" begin="reset.mouseover" end="reset.mouseout"/></use>
  </g>
</defs>
<script type="application/ecmascript">
var viewWidth = 1587;
var viewHeight = 315;
var sectionId = 'dynsection-0';
</script>
<script type="application/ecmascript" xlink:href="svg.min.js"/>
<svg id="graph" class="graph">
<g id="viewport">
<title>src/wayland/wl_seat.c</title>
<!-- Node1 -->
<g id="Node000001" class="node">
<title>Node1</title>
<g id="a_Node000001"><a xlink:title=" ">
<polygon fill="#999999" stroke="#666666" points="881.88,-306.75 768.38,-306.75 768.38,-287.5 881.88,-287.5 881.88,-306.75"/>
<text text-anchor="middle" x="825.12" y="-293.25" font-family="Helvetica,sans-Serif" font-size="10.00">src/wayland/wl_seat.c</text>
</a>
</g>
</g>
<!-- Node2 -->
<g id="Node000002" class="node">
<title>Node2</title>
<g id="a_Node000002"><a xlink:title=" ">
<polygon fill="#e0e0e0" stroke="#999999" points="632.5,-251.5 507.75,-251.5 507.75,-232.25 632.5,-232.25 632.5,-251.5"/>
<text text-anchor="middle" x="570.12" y="-238" font-family="Helvetica,sans-Serif" font-size="10.00">linux/input&#45;event&#45;codes.h</text>
</a>
</g>
</g>
<!-- Node1&#45;&gt;Node2 -->
<g id="edge1_Node000001_Node000002" class="edge">
<title>Node1&#45;&gt;Node2</title>
<g id="a_edge1_Node000001_Node000002"><a xlink:title=" ">
<path fill="none" stroke="#63b8ff" d="M781.58,-287.03C738.21,-277.98 671.52,-264.05 624.66,-254.26"/>
<polygon fill="#63b8ff" stroke="#63b8ff" points="625.48,-250.86 614.97,-252.24 624.05,-257.71 625.48,-250.86"/>
</a>
</g>
</g>
<!-- Node3 -->
<g id="Node000003" class="node">
<title>Node3</title>
<g id="a_Node000003"><a xlink:title=" ">
<polygon fill="#e0e0e0" stroke="#999999" points="732.12,-251.5 650.12,-251.5 650.12,-232.25 732.12,-232.25 732.12,-251.5"/>
<text text-anchor="middle" x="691.12" y="-238" font-family="Helvetica,sans-Serif" font-size="10.00">protocols/idle.h</text>
</a>
</g>
</g>
<!-- Node1&#45;&gt;Node3 -->
<g id="edge2_Node000001_Node000003" class="edge">
<title>Node1&#45;&gt;Node3</title>
<g id="a_edge2_Node000001_Node000003"><a xlink:title=" ">
<path fill="none" stroke="#63b8ff" d="M802.39,-287.09C781.03,-278.6 748.78,-265.79 724.5,-256.14"/>
<polygon fill="#63b8ff" stroke="#63b8ff" points="725.96,-252.95 715.37,-252.51 723.37,-259.46 725.96,-252.95"/>
</a>
</g>
</g>
<!-- Node4 -->
<g id="Node000004" class="node">
<title>Node4</title>
<g id="a_Node000004"><a xlink:href="dunst_8h.html" target="_top" xlink:title="Main event loop logic.">
<polygon fill="white" stroke="#666666" points="1171.75,-251.5 1114.5,-251.5 1114.5,-232.25 1171.75,-232.25 1171.75,-251.5"/>
<text text-anchor="middle" x="1143.12" y="-238" font-family="Helvetica,sans-Serif" font-size="10.00">../dunst.h</text>
</a>
</g>
</g>
<!-- Node1&#45;&gt;Node4 -->
<g id="edge3_Node000001_Node000004" class="edge">
<title>Node1&#45;&gt;Node4</title>
<g id="a_edge3_Node000001_Node000004"><a xlink:title=" ">
<path fill="none" stroke="#63b8ff" d="M879.43,-287.03C942.86,-276.41 1046.3,-259.09 1102.94,-249.6"/>
<polygon fill="#63b8ff" stroke="#63b8ff" points="1103.5,-253.06 1112.79,-247.96 1102.35,-246.15 1103.5,-253.06"/>
</a>
</g>
</g>
<!-- Node15 -->
<g id="Node000015" class="node">
<title>Node15</title>
<g id="a_Node000015"><a xlink:href="input_8h.html" target="_top" xlink:title="Input handling for mouse events.">
<polygon fill="white" stroke="#666666" points="880.25,-196.25 826,-196.25 826,-177 880.25,-177 880.25,-196.25"/>
<text text-anchor="middle" x="853.12" y="-182.75" font-family="Helvetica,sans-Serif" font-size="10.00">../input.h</text>
</a>
</g>
</g>
<!-- Node1&#45;&gt;Node15 -->
<g id="edge21_Node000001_Node000015" class="edge">
<title>Node1&#45;&gt;Node15</title>
<g id="a_edge21_Node000001_Node000015"><a xlink:title=" ">
<path fill="none" stroke="#63b8ff" d="M827.42,-287.25C831.89,-269.92 841.87,-231.23 848,-207.49"/>
<polygon fill="#63b8ff" stroke="#63b8ff" points="851.31,-208.65 850.42,-198.09 844.54,-206.9 851.31,-208.65"/>
</a>
</g>
</g>
<!-- Node16 -->
<g id="Node000016" class="node">
<title>Node16</title>
<g id="a_Node000016"><a xlink:href="log_8h.html" target="_top" xlink:title="Logging subsystem and helpers.">
<polygon fill="white" stroke="#666666" points="1449.12,-251.5 1403.12,-251.5 1403.12,-232.25 1449.12,-232.25 1449.12,-251.5"/>
<text text-anchor="middle" x="1426.12" y="-238" font-family="Helvetica,sans-Serif" font-size="10.00">../log.h</text>
</a>
</g>
</g>
<!-- Node1&#45;&gt;Node16 -->
<g id="edge23_Node000001_Node000016" class="edge">
<title>Node1&#45;&gt;Node16</title>
<g id="a_edge23_Node000001_Node000016"><a xlink:title=" ">
<path fill="none" stroke="#63b8ff" d="M882.21,-291.07C1005.12,-280.18 1291.76,-254.78 1391.32,-245.96"/>
<polygon fill="#63b8ff" stroke="#63b8ff" points="1391.61,-249.45 1401.27,-245.08 1391,-242.47 1391.61,-249.45"/>
</a>
</g>
</g>
<!-- Node19 -->
<g id="Node000019" class="node">
<title>Node19</title>
<g id="a_Node000019"><a xlink:href="settings_8h.html" target="_top" xlink:title="Type definitions for settings.">
<polygon fill="white" stroke="#666666" points="996,-251.5 928.25,-251.5 928.25,-232.25 996,-232.25 996,-251.5"/>
<text text-anchor="middle" x="962.12" y="-238" font-family="Helvetica,sans-Serif" font-size="10.00">../settings.h</text>
</a>
</g>
</g>
<!-- Node1&#45;&gt;Node19 -->
<g id="edge29_Node000001_Node000019" class="edge">
<title>Node1&#45;&gt;Node19</title>
<g id="a_edge29_Node000001_Node000019"><a xlink:title=" ">
<path fill="none" stroke="#63b8ff" d="M848.37,-287.09C870.31,-278.56 903.47,-265.67 928.34,-256.01"/>
<polygon fill="#63b8ff" stroke="#63b8ff" points="929.31,-259.39 937.36,-252.5 926.77,-252.86 929.31,-259.39"/>
</a>
</g>
</g>
<!-- Node20 -->
<g id="Node000020" class="node">
<title>Node20</title>
<g id="a_Node000020"><a xlink:href="wl__seat_8h.html" target="_top" xlink:title="Wayland seat managment.">
<polygon fill="white" stroke="#666666" points="705.12,-141 647.12,-141 647.12,-121.75 705.12,-121.75 705.12,-141"/>
<text text-anchor="middle" x="676.12" y="-127.5" font-family="Helvetica,sans-Serif" font-size="10.00">wl_seat.h</text>
</a>
</g>
</g>
<!-- Node1&#45;&gt;Node20 -->
<g id="edge33_Node000001_Node000020" class="edge">
<title>Node1&#45;&gt;Node20</title>
<g id="a_edge33_Node000001_Node000020"><a xlink:title=" ">
<path fill="none" stroke="#63b8ff" d="M823.58,-287.12C819.41,-265.43 806.05,-209.66 774.12,-177 758.32,-160.83 735.58,-149.98 715.98,-143.03"/>
<polygon fill="#63b8ff" stroke="#63b8ff" points="717.21,-139.75 706.62,-139.95 715.02,-146.4 717.21,-139.75"/>
</a>
</g>
</g>
<!-- Node26 -->
<g id="Node000026" class="node">
<title>Node26</title>
<g id="a_Node000026"><a xlink:href="wl__ctx_8h.html" target="_top" xlink:title="Wayland context tracking.">
<polygon fill="white" stroke="#666666" points="461.5,-141 408.75,-141 408.75,-121.75 461.5,-121.75 461.5,-141"/>
<text text-anchor="middle" x="435.12" y="-127.5" font-family="Helvetica,sans-Serif" font-size="10.00">wl_ctx.h</text>
</a>
</g>
</g>
<!-- Node1&#45;&gt;Node26 -->
<g id="edge40_Node000001_Node000026" class="edge">
<title>Node1&#45;&gt;Node26</title>
<g id="a_edge40_Node000001_Node000026"><a xlink:title=" ">
<path fill="none" stroke="#63b8ff" d="M815.53,-287.08C800.65,-273.48 770.66,-247.73 741.12,-232.25 650.18,-184.58 532.14,-153.88 472.76,-140.36"/>
<polygon fill="#63b8ff" stroke="#63b8ff" points="473.69,-136.98 463.16,-138.21 472.16,-143.81 473.69,-136.98"/>
</a>
</g>
</g>
<!-- Node5 -->
<g id="Node000005" class="node">
<title>Node5</title>
<g id="a_Node000005"><a xlink:title=" ">
<polygon fill="#e0e0e0" stroke="#999999" points="1344.75,-19.25 1305.5,-19.25 1305.5,0 1344.75,0 1344.75,-19.25"/>
<text text-anchor="middle" x="1325.12" y="-5.75" font-family="Helvetica,sans-Serif" font-size="10.00">glib.h</text>
</a>
</g>
</g>
<!-- Node4&#45;&gt;Node5 -->
<g id="edge4_Node000004_Node000005" class="edge">
<title>Node4&#45;&gt;Node5</title>
<g id="a_edge4_Node000004_Node000005"><a xlink:title=" ">
<path fill="none" stroke="#63b8ff" d="M1166.37,-231.8C1201.01,-217.27 1266.44,-185.79 1307.12,-141 1333.99,-111.42 1338.09,-95.01 1334.12,-55.25 1333.31,-47.09 1331.68,-38.22 1330.02,-30.54"/>
<polygon fill="#63b8ff" stroke="#63b8ff" points="1333.46,-29.86 1327.79,-20.91 1326.64,-31.44 1333.46,-29.86"/>
</a>
</g>
</g>
<!-- Node6 -->
<g id="Node000006" class="node">
<title>Node6</title>
<g id="a_Node000006"><a xlink:title=" ">
<polygon fill="#e0e0e0" stroke="#999999" points="955,-19.25 899.25,-19.25 899.25,0 955,0 955,-19.25"/>
<text text-anchor="middle" x="927.12" y="-5.75" font-family="Helvetica,sans-Serif" font-size="10.00">stdbool.h</text>
</a>
</g>
</g>
<!-- Node4&#45;&gt;Node6 -->
<g id="edge5_Node000004_Node000006" class="edge">
<title>Node4&#45;&gt;Node6</title>
<g id="a_edge5_Node000004_Node000006"><a xlink:title=" ">
<path fill="none" stroke="#63b8ff" d="M1118.59,-231.78C1083.62,-217.62 1019.66,-187.04 983.12,-141 956.04,-106.86 939.64,-57.65 932.1,-30.49"/>
<polygon fill="#63b8ff" stroke="#63b8ff" points="935.58,-29.94 929.64,-21.17 928.81,-31.73 935.58,-29.94"/>
</a>
</g>
</g>
<!-- Node7 -->
<g id="Node000007" class="node">
<title>Node7</title>
<g id="a_Node000007"><a xlink:title=" ">
<polygon fill="#e0e0e0" stroke="#999999" points="1372.75,-196.25 1327.5,-196.25 1327.5,-177 1372.75,-177 1372.75,-196.25"/>
<text text-anchor="middle" x="1350.12" y="-182.75" font-family="Helvetica,sans-Serif" font-size="10.00">stdio.h</text>
</a>
</g>
</g>
<!-- Node4&#45;&gt;Node7 -->
<g id="edge6_Node000004_Node000007" class="edge">
<title>Node4&#45;&gt;Node7</title>
<g id="a_edge6_Node000004_Node000007"><a xlink:title=" ">
<path fill="none" stroke="#63b8ff" d="M1171.91,-233.47C1209.62,-223.77 1275.68,-206.78 1315.91,-196.43"/>
<polygon fill="#63b8ff" stroke="#63b8ff" points="1316.73,-199.83 1325.55,-193.95 1314.99,-193.05 1316.73,-199.83"/>
</a>
</g>
</g>
<!-- Node8 -->
<g id="Node000008" class="node">
<title>Node8</title>
<g id="a_Node000008"><a xlink:title=" ">
<polygon fill="#e0e0e0" stroke="#999999" points="1207.75,-196.25 1156.5,-196.25 1156.5,-177 1207.75,-177 1207.75,-196.25"/>
<text text-anchor="middle" x="1182.12" y="-182.75" font-family="Helvetica,sans-Serif" font-size="10.00">stddef.h</text>
</a>
</g>
</g>
<!-- Node4&#45;&gt;Node8 -->
<g id="edge7_Node000004_Node000008" class="edge">
<title>Node4&#45;&gt;Node8</title>
<g id="a_edge7_Node000004_Node000008"><a xlink:title=" ">
<path fill="none" stroke="#63b8ff" d="M1149.57,-232.08C1154.78,-224.96 1162.31,-214.68 1168.82,-205.8"/>
<polygon fill="#63b8ff" stroke="#63b8ff" points="1171.57,-207.97 1174.65,-197.83 1165.92,-203.83 1171.57,-207.97"/>
</a>
</g>
</g>
<!-- Node9 -->
<g id="Node000009" class="node">
<title>Node9</title>
<g id="a_Node000009"><a xlink:href="notification_8h.html" target="_top" xlink:title="Notification type definitions.">
<polygon fill="white" stroke="#666666" points="1138.88,-196.25 1067.38,-196.25 1067.38,-177 1138.88,-177 1138.88,-196.25"/>
<text text-anchor="middle" x="1103.12" y="-182.75" font-family="Helvetica,sans-Serif" font-size="10.00">notification.h</text>
</a>
</g>
</g>
<!-- Node4&#45;&gt;Node9 -->
<g id="edge8_Node000004_Node000009" class="edge">
<title>Node4&#45;&gt;Node9</title>
<g id="a_edge8_Node000004_Node000009"><a xlink:title=" ">
<path fill="none" stroke="#63b8ff" d="M1136.52,-232.08C1131.17,-224.96 1123.45,-214.68 1116.78,-205.8"/>
<polygon fill="#63b8ff" stroke="#63b8ff" points="1119.59,-203.71 1110.78,-197.82 1113.99,-207.92 1119.59,-203.71"/>
</a>
</g>
</g>
<!-- Node9&#45;&gt;Node5 -->
<g id="edge9_Node000009_Node000005" class="edge">
<title>Node9&#45;&gt;Node5</title>
<g id="a_edge9_Node000009_Node000005"><a xlink:title=" ">
<path fill="none" stroke="#63b8ff" d="M1139.23,-177.78C1191.01,-166.4 1280.75,-146.11 1286.12,-141 1316.88,-111.79 1323.68,-59.44 1325,-30.77"/>
<polygon fill="#63b8ff" stroke="#63b8ff" points="1328.49,-31.02 1325.24,-20.94 1321.49,-30.85 1328.49,-31.02"/>
</a>
</g>
</g>
<!-- Node9&#45;&gt;Node6 -->
<g id="edge10_Node000009_Node000006" class="edge">
<title>Node9&#45;&gt;Node6</title>
<g id="a_edge10_Node000009_Node000006"><a xlink:title=" ">
<path fill="none" stroke="#63b8ff" d="M1068.24,-176.56C1047.29,-169.66 1021.27,-158.34 1003.12,-141 972.31,-111.54 982.44,-91.58 960.12,-55.25 954.52,-46.13 947.57,-36.52 941.49,-28.56"/>
<polygon fill="#63b8ff" stroke="#63b8ff" points="944.28,-26.45 935.36,-20.73 938.76,-30.76 944.28,-26.45"/>
</a>
</g>
</g>
<!-- Node10 -->
<g id="Node000010" class="node">
<title>Node10</title>
<g id="a_Node000010"><a xlink:title=" ">
<polygon fill="#e0e0e0" stroke="#999999" points="1258.62,-141 1149.62,-141 1149.62,-121.75 1258.62,-121.75 1258.62,-141"/>
<text text-anchor="middle" x="1204.12" y="-127.5" font-family="Helvetica,sans-Serif" font-size="10.00">pango/pango&#45;layout.h</text>
</a>
</g>
</g>
<!-- Node9&#45;&gt;Node10 -->
<g id="edge11_Node000009_Node000010" class="edge">
<title>Node9&#45;&gt;Node10</title>
<g id="a_edge11_Node000009_Node000010"><a xlink:title=" ">
<path fill="none" stroke="#63b8ff" d="M1120.26,-176.59C1135.78,-168.41 1158.93,-156.21 1176.97,-146.69"/>
<polygon fill="#63b8ff" stroke="#63b8ff" points="1178.36,-149.92 1185.57,-142.16 1175.09,-143.73 1178.36,-149.92"/>
</a>
</g>
</g>
<!-- Node11 -->
<g id="Node000011" class="node">
<title>Node11</title>
<g id="a_Node000011"><a xlink:title=" ">
<polygon fill="#e0e0e0" stroke="#999999" points="1152.75,-19.25 1107.5,-19.25 1107.5,0 1152.75,0 1152.75,-19.25"/>
<text text-anchor="middle" x="1130.12" y="-5.75" font-family="Helvetica,sans-Serif" font-size="10.00">cairo.h</text>
</a>
</g>
</g>
<!-- Node9&#45;&gt;Node11 -->
<g id="edge12_Node000009_Node000011" class="edge">
<title>Node9&#45;&gt;Node11</title>
<g id="a_edge12_Node000009_Node000011"><a xlink:title=" ">
<path fill="none" stroke="#63b8ff" d="M1139.07,-178.31C1185.18,-168.57 1260.19,-151.37 1268.12,-141 1305.44,-92.25 1215.41,-45.43 1163.58,-23.53"/>
<polygon fill="#63b8ff" stroke="#63b8ff" points="1165.14,-20.39 1154.56,-19.82 1162.48,-26.86 1165.14,-20.39"/>
</a>
</g>
</g>
<!-- Node12 -->
<g id="Node000012" class="node">
<title>Node12</title>
<g id="a_Node000012"><a xlink:href="markup_8h.html" target="_top" xlink:title="Markup handling for notifications body.">
<polygon fill="white" stroke="#666666" points="1131.38,-141 1074.88,-141 1074.88,-121.75 1131.38,-121.75 1131.38,-141"/>
<text text-anchor="middle" x="1103.12" y="-127.5" font-family="Helvetica,sans-Serif" font-size="10.00">markup.h</text>
</a>
</g>
</g>
<!-- Node9&#45;&gt;Node12 -->
<g id="edge13_Node000009_Node000012" class="edge">
<title>Node9&#45;&gt;Node12</title>
<g id="a_edge13_Node000009_Node000012"><a xlink:title=" ">
<path fill="none" stroke="#63b8ff" d="M1103.12,-176.83C1103.12,-170.32 1103.12,-161.17 1103.12,-152.87"/>
<polygon fill="#63b8ff" stroke="#63b8ff" points="1106.63,-152.87 1103.13,-142.87 1099.63,-152.87 1106.63,-152.87"/>
</a>
</g>
</g>
<!-- Node13 -->
<g id="Node000013" class="node">
<title>Node13</title>
<g id="a_Node000013"><a xlink:href="draw_8h.html" target="_top" xlink:title="Layout and render notifications.">
<polygon fill="white" stroke="#666666" points="1056.38,-141 1011.88,-141 1011.88,-121.75 1056.38,-121.75 1056.38,-141"/>
<text text-anchor="middle" x="1034.12" y="-127.5" font-family="Helvetica,sans-Serif" font-size="10.00">draw.h</text>
</a>
</g>
</g>
<!-- Node9&#45;&gt;Node13 -->
<g id="edge14_Node000009_Node000013" class="edge">
<title>Node9&#45;&gt;Node13</title>
<g id="a_edge14_Node000009_Node000013"><a xlink:title=" ">
<path fill="none" stroke="#63b8ff" d="M1091.42,-176.59C1081.35,-168.82 1066.58,-157.42 1054.56,-148.15"/>
<polygon fill="#63b8ff" stroke="#63b8ff" points="1056.91,-145.54 1046.86,-142.2 1052.63,-151.08 1056.91,-145.54"/>
</a>
</g>
</g>
<!-- Node13&#45;&gt;Node6 -->
<g id="edge15_Node000013_Node000006" class="edge">
<title>Node13&#45;&gt;Node6</title>
<g id="a_edge15_Node000013_Node000006"><a xlink:title=" ">
<path fill="none" stroke="#63b8ff" d="M1031.68,-121.58C1027.15,-106.55 1016.22,-75.54 998.12,-55.25 986.93,-42.7 971.37,-32.38 957.68,-24.85"/>
<polygon fill="#63b8ff" stroke="#63b8ff" points="959.5,-21.85 949.01,-20.33 956.26,-28.06 959.5,-21.85"/>
</a>
</g>
</g>
<!-- Node13&#45;&gt;Node11 -->
<g id="edge16_Node000013_Node000011" class="edge">
<title>Node13&#45;&gt;Node11</title>
<g id="a_edge16_Node000013_Node000011"><a xlink:title=" ">
<path fill="none" stroke="#63b8ff" d="M1056.67,-122.85C1074.08,-115.9 1097.44,-103.88 1111.12,-85.75 1123.15,-69.82 1127.62,-47.13 1129.25,-30.86"/>
<polygon fill="#63b8ff" stroke="#63b8ff" points="1132.74,-31.17 1129.94,-20.95 1125.75,-30.68 1132.74,-31.17"/>
</a>
</g>
</g>
<!-- Node14 -->
<g id="Node000014" class="node">
<title>Node14</title>
<g id="a_Node000014"><a xlink:href="output_8h.html" target="_top" xlink:title="Generic graphics backend wrapper.">
<polygon fill="white" stroke="#666666" points="1101.75,-80.12 1050.5,-80.12 1050.5,-60.88 1101.75,-60.88 1101.75,-80.12"/>
<text text-anchor="middle" x="1076.12" y="-66.62" font-family="Helvetica,sans-Serif" font-size="10.00">output.h</text>
</a>
</g>
</g>
<!-- Node13&#45;&gt;Node14 -->
<g id="edge17_Node000013_Node000014" class="edge">
<title>Node13&#45;&gt;Node14</title>
<g id="a_edge17_Node000013_Node000014"><a xlink:title=" ">
<path fill="none" stroke="#63b8ff" d="M1040.5,-121.43C1046.49,-113.05 1055.61,-100.26 1063.13,-89.72"/>
<polygon fill="#63b8ff" stroke="#63b8ff" points="1065.85,-91.93 1068.81,-81.76 1060.15,-87.87 1065.85,-91.93"/>
</a>
</g>
</g>
<!-- Node14&#45;&gt;Node5 -->
<g id="edge19_Node000014_Node000005" class="edge">
<title>Node14&#45;&gt;Node5</title>
<g id="a_edge19_Node000014_Node000005"><a xlink:title=" ">
<path fill="none" stroke="#63b8ff" d="M1101.83,-63.42C1147.96,-52.51 1244.59,-29.67 1294.23,-17.93"/>
<polygon fill="#63b8ff" stroke="#63b8ff" points="1294.82,-21.39 1303.74,-15.68 1293.21,-14.58 1294.82,-21.39"/>
</a>
</g>
</g>
<!-- Node14&#45;&gt;Node6 -->
<g id="edge18_Node000014_Node000006" class="edge">
<title>Node14&#45;&gt;Node6</title>
<g id="a_edge18_Node000014_Node000006"><a xlink:title=" ">
<path fill="none" stroke="#63b8ff" d="M1053.17,-60.43C1028.38,-50.63 988.65,-34.94 960.43,-23.79"/>
<polygon fill="#63b8ff" stroke="#63b8ff" points="961.86,-20.58 951.27,-20.17 959.28,-27.1 961.86,-20.58"/>
</a>
</g>
</g>
<!-- Node14&#45;&gt;Node11 -->
<g id="edge20_Node000014_Node000011" class="edge">
<title>Node14&#45;&gt;Node11</title>
<g id="a_edge20_Node000014_Node000011"><a xlink:title=" ">
<path fill="none" stroke="#63b8ff" d="M1084.33,-60.56C1092.26,-51.91 1104.48,-38.59 1114.3,-27.87"/>
<polygon fill="#63b8ff" stroke="#63b8ff" points="1116.64,-30.5 1120.82,-20.77 1111.48,-25.77 1116.64,-30.5"/>
</a>
</g>
</g>
<!-- Node15&#45;&gt;Node6 -->
<g id="edge22_Node000015_Node000006" class="edge">
<title>Node15&#45;&gt;Node6</title>
<g id="a_edge22_Node000015_Node000006"><a xlink:title=" ">
<path fill="none" stroke="#63b8ff" d="M854.86,-176.69C859.3,-155 872.28,-98.18 894.12,-55.25 898.92,-45.83 905.66,-36.29 911.81,-28.46"/>
<polygon fill="#63b8ff" stroke="#63b8ff" points="914.48,-30.72 918.11,-20.77 909.07,-26.28 914.48,-30.72"/>
</a>
</g>
</g>
<!-- Node16&#45;&gt;Node5 -->
<g id="edge25_Node000016_Node000005" class="edge">
<title>Node16&#45;&gt;Node5</title>
<g id="a_edge25_Node000016_Node000005"><a xlink:title=" ">
<path fill="none" stroke="#63b8ff" d="M1445.65,-231.84C1459.18,-224.4 1476.16,-212.44 1484.12,-196.25 1487.9,-188.57 1487.14,-185.01 1484.12,-177 1457.99,-107.68 1386.3,-51.49 1348.75,-25.78"/>
<polygon fill="#63b8ff" stroke="#63b8ff" points="1351.08,-23.12 1340.82,-20.47 1347.19,-28.94 1351.08,-23.12"/>
</a>
</g>
</g>
<!-- Node16&#45;&gt;Node6 -->
<g id="edge26_Node000016_Node000006" class="edge">
<title>Node16&#45;&gt;Node6</title>
<g id="a_edge26_Node000016_Node000006"><a xlink:title=" ">
<path fill="none" stroke="#63b8ff" d="M1421.88,-231.95C1415.11,-218.51 1400.72,-192.96 1382.12,-177 1281.94,-90.99 1236.49,-96.7 1111.12,-55.25 1062.05,-39.03 1003.85,-25.9 966.24,-18.18"/>
<polygon fill="#63b8ff" stroke="#63b8ff" points="967.24,-14.81 956.75,-16.26 965.86,-21.68 967.24,-14.81"/>
</a>
</g>
</g>
<!-- Node16&#45;&gt;Node7 -->
<g id="edge27_Node000016_Node000007" class="edge">
<title>Node16&#45;&gt;Node7</title>
<g id="a_edge27_Node000016_Node000007"><a xlink:title=" ">
<path fill="none" stroke="#63b8ff" d="M1413.23,-231.84C1402.1,-224.04 1385.75,-212.59 1372.49,-203.29"/>
<polygon fill="#63b8ff" stroke="#63b8ff" points="1374.52,-200.44 1364.32,-197.57 1370.5,-206.18 1374.52,-200.44"/>
</a>
</g>
</g>
<!-- Node17 -->
<g id="Node000017" class="node">
<title>Node17</title>
<g id="a_Node000017"><a xlink:title=" ">
<polygon fill="#e0e0e0" stroke="#999999" points="1475.12,-196.25 1429.12,-196.25 1429.12,-177 1475.12,-177 1475.12,-196.25"/>
<text text-anchor="middle" x="1452.12" y="-182.75" font-family="Helvetica,sans-Serif" font-size="10.00">errno.h</text>
</a>
</g>
</g>
<!-- Node16&#45;&gt;Node17 -->
<g id="edge24_Node000016_Node000017" class="edge">
<title>Node16&#45;&gt;Node17</title>
<g id="a_edge24_Node000016_Node000017"><a xlink:title=" ">
<path fill="none" stroke="#63b8ff" d="M1430.42,-232.08C1433.75,-225.26 1438.49,-215.56 1442.69,-206.95"/>
<polygon fill="#63b8ff" stroke="#63b8ff" points="1445.83,-208.49 1447.07,-197.97 1439.54,-205.42 1445.83,-208.49"/>
</a>
</g>
</g>
<!-- Node18 -->
<g id="Node000018" class="node">
<title>Node18</title>
<g id="a_Node000018"><a xlink:title=" ">
<polygon fill="#e0e0e0" stroke="#999999" points="1578.88,-196.25 1531.38,-196.25 1531.38,-177 1578.88,-177 1578.88,-196.25"/>
<text text-anchor="middle" x="1555.12" y="-182.75" font-family="Helvetica,sans-Serif" font-size="10.00">stdlib.h</text>
</a>
</g>
</g>
<!-- Node16&#45;&gt;Node18 -->
<g id="edge28_Node000016_Node000018" class="edge">
<title>Node16&#45;&gt;Node18</title>
<g id="a_edge28_Node000016_Node000018"><a xlink:title=" ">
<path fill="none" stroke="#63b8ff" d="M1448.01,-231.84C1468.49,-223.39 1499.34,-210.65 1522.68,-201.02"/>
<polygon fill="#63b8ff" stroke="#63b8ff" points="1523.83,-204.33 1531.74,-197.28 1521.16,-197.86 1523.83,-204.33"/>
</a>
</g>
</g>
<!-- Node19&#45;&gt;Node6 -->
<g id="edge30_Node000019_Node000006" class="edge">
<title>Node19&#45;&gt;Node6</title>
<g id="a_edge30_Node000019_Node000006"><a xlink:title=" ">
<path fill="none" stroke="#63b8ff" d="M953.72,-231.79C946.47,-223.31 936.5,-209.94 932.12,-196.25 913.67,-138.52 919.62,-65.48 924.09,-30.75"/>
<polygon fill="#63b8ff" stroke="#63b8ff" points="927.54,-31.31 925.46,-20.92 920.61,-30.34 927.54,-31.31"/>
</a>
</g>
</g>
<!-- Node19&#45;&gt;Node9 -->
<g id="edge31_Node000019_Node000009" class="edge">
<title>Node19&#45;&gt;Node9</title>
<g id="a_edge31_Node000019_Node000009"><a xlink:title=" ">
<path fill="none" stroke="#63b8ff" d="M986.04,-231.84C1008.63,-223.31 1042.76,-210.42 1068.35,-200.76"/>
<polygon fill="#63b8ff" stroke="#63b8ff" points="1069.55,-204.04 1077.67,-197.24 1067.08,-197.5 1069.55,-204.04"/>
</a>
</g>
</g>
<!-- Node19&#45;&gt;Node13 -->
<g id="edge32_Node000019_Node000013" class="edge">
<title>Node19&#45;&gt;Node13</title>
<g id="a_edge32_Node000019_Node000013"><a xlink:title=" ">
<path fill="none" stroke="#63b8ff" d="M968.02,-232C979.73,-214.35 1006.14,-174.55 1021.8,-150.95"/>
<polygon fill="#63b8ff" stroke="#63b8ff" points="1024.7,-152.91 1027.31,-142.64 1018.87,-149.03 1024.7,-152.91"/>
</a>
</g>
</g>
<!-- Node20&#45;&gt;Node6 -->
<g id="edge34_Node000020_Node000006" class="edge">
<title>Node20&#45;&gt;Node6</title>
<g id="a_edge34_Node000020_Node000006"><a xlink:title=" ">
<path fill="none" stroke="#63b8ff" d="M680.33,-121.34C688.26,-105.34 707,-72.14 733.12,-55.25 780.38,-24.7 845.99,-14.96 887.5,-11.92"/>
<polygon fill="#63b8ff" stroke="#63b8ff" points="887.52,-15.42 897.28,-11.3 887.09,-8.44 887.52,-15.42"/>
</a>
</g>
</g>
<!-- Node21 -->
<g id="Node000021" class="node">
<title>Node21</title>
<g id="a_Node000021"><a xlink:title=" ">
<polygon fill="#e0e0e0" stroke="#999999" points="630.25,-19.25 582,-19.25 582,0 630.25,0 630.25,-19.25"/>
<text text-anchor="middle" x="606.12" y="-5.75" font-family="Helvetica,sans-Serif" font-size="10.00">stdint.h</text>
</a>
</g>
</g>
<!-- Node20&#45;&gt;Node21 -->
<g id="edge35_Node000020_Node000021" class="edge">
<title>Node20&#45;&gt;Node21</title>
<g id="a_edge35_Node000020_Node000021"><a xlink:title=" ">
<path fill="none" stroke="#63b8ff" d="M675.57,-121.38C674.31,-106.58 670.2,-76.58 657.12,-55.25 650.14,-43.85 639.3,-33.77 629.41,-26.09"/>
<polygon fill="#63b8ff" stroke="#63b8ff" points="631.74,-23.46 621.6,-20.39 627.61,-29.12 631.74,-23.46"/>
</a>
</g>
</g>
<!-- Node22 -->
<g id="Node000022" class="node">
<title>Node22</title>
<g id="a_Node000022"><a xlink:title=" ">
<polygon fill="#e0e0e0" stroke="#999999" points="286.38,-19.25 199.88,-19.25 199.88,0 286.38,0 286.38,-19.25"/>
<text text-anchor="middle" x="243.12" y="-5.75" font-family="Helvetica,sans-Serif" font-size="10.00">wayland&#45;client.h</text>
</a>
</g>
</g>
<!-- Node20&#45;&gt;Node22 -->
<g id="edge36_Node000020_Node000022" class="edge">
<title>Node20&#45;&gt;Node22</title>
<g id="a_edge36_Node000020_Node000022"><a xlink:title=" ">
<path fill="none" stroke="#63b8ff" d="M646.66,-130.01C567.88,-128.55 354.35,-121.33 295.12,-85.75 273.82,-72.95 259.12,-47.68 250.91,-30"/>
<polygon fill="#63b8ff" stroke="#63b8ff" points="254.23,-28.86 247.06,-21.07 247.81,-31.64 254.23,-28.86"/>
</a>
</g>
</g>
<!-- Node23 -->
<g id="Node000023" class="node">
<title>Node23</title>
<g id="a_Node000023"><a xlink:title=" ">
<polygon fill="#e0e0e0" stroke="#999999" points="648.12,-80.12 524.12,-80.12 524.12,-60.88 648.12,-60.88 648.12,-80.12"/>
<text text-anchor="middle" x="586.12" y="-66.62" font-family="Helvetica,sans-Serif" font-size="10.00">wayland&#45;client&#45;protocol.h</text>
</a>
</g>
</g>
<!-- Node20&#45;&gt;Node23 -->
<g id="edge37_Node000020_Node000023" class="edge">
<title>Node20&#45;&gt;Node23</title>
<g id="a_edge37_Node000020_Node000023"><a xlink:title=" ">
<path fill="none" stroke="#63b8ff" d="M662.46,-121.43C648.32,-112.18 625.98,-97.57 609.12,-86.54"/>
<polygon fill="#63b8ff" stroke="#63b8ff" points="611.47,-83.9 601.19,-81.35 607.64,-89.76 611.47,-83.9"/>
</a>
</g>
</g>
<!-- Node24 -->
<g id="Node000024" class="node">
<title>Node24</title>
<g id="a_Node000024"><a xlink:title=" ">
<polygon fill="#e0e0e0" stroke="#999999" points="506.12,-80.12 430.12,-80.12 430.12,-60.88 506.12,-60.88 506.12,-80.12"/>
<text text-anchor="middle" x="468.12" y="-66.62" font-family="Helvetica,sans-Serif" font-size="10.00">wayland&#45;util.h</text>
</a>
</g>
</g>
<!-- Node20&#45;&gt;Node24 -->
<g id="edge38_Node000020_Node000024" class="edge">
<title>Node20&#45;&gt;Node24</title>
<g id="a_edge38_Node000020_Node000024"><a xlink:title=" ">
<path fill="none" stroke="#63b8ff" d="M646.69,-122.44C614.36,-113.68 560.95,-99.05 515.12,-85.75 513.01,-85.14 510.84,-84.5 508.65,-83.85"/>
<polygon fill="#63b8ff" stroke="#63b8ff" points="509.71,-80.52 499.13,-81.01 507.71,-87.23 509.71,-80.52"/>
</a>
</g>
</g>
<!-- Node25 -->
<g id="Node000025" class="node">
<title>Node25</title>
<g id="a_Node000025"><a xlink:title=" ">
<polygon fill="#e0e0e0" stroke="#999999" points="842.12,-85.75 742.12,-85.75 742.12,-55.25 842.12,-55.25 842.12,-85.75"/>
<text text-anchor="start" x="750.12" y="-72.25" font-family="Helvetica,sans-Serif" font-size="10.00">protocols/idle&#45;client</text>
<text text-anchor="middle" x="792.12" y="-61" font-family="Helvetica,sans-Serif" font-size="10.00">&#45;header.h</text>
</a>
</g>
</g>
<!-- Node20&#45;&gt;Node25 -->
<g id="edge39_Node000020_Node000025" class="edge">
<title>Node20&#45;&gt;Node25</title>
<g id="a_edge39_Node000020_Node000025"><a xlink:title=" ">
<path fill="none" stroke="#63b8ff" d="M694,-121.3C709.69,-113.34 733.07,-101.47 753.08,-91.32"/>
<polygon fill="#63b8ff" stroke="#63b8ff" points="754.49,-94.53 761.82,-86.88 751.32,-88.28 754.49,-94.53"/>
</a>
</g>
</g>
<!-- Node26&#45;&gt;Node5 -->
<g id="edge42_Node000026_Node000005" class="edge">
<title>Node26&#45;&gt;Node5</title>
<g id="a_edge42_Node000026_Node000005"><a xlink:title=" ">
<path fill="none" stroke="#63b8ff" d="M461.93,-129.04C579.52,-123.11 1046.74,-98.92 1111.12,-85.75 1178.8,-71.91 1254.21,-41.76 1294.98,-24.16"/>
<polygon fill="#63b8ff" stroke="#63b8ff" points="1296.14,-27.47 1303.9,-20.26 1293.33,-21.05 1296.14,-27.47"/>
</a>
</g>
</g>
<!-- Node26&#45;&gt;Node6 -->
<g id="edge41_Node000026_Node000006" class="edge">
<title>Node26&#45;&gt;Node6</title>
<g id="a_edge41_Node000026_Node000006"><a xlink:title=" ">
<path fill="none" stroke="#63b8ff" d="M429.42,-121.68C420.06,-106.22 404.1,-73.84 421.12,-55.25 452.44,-21.05 773.79,-12.93 887.51,-11.11"/>
<polygon fill="#63b8ff" stroke="#63b8ff" points="887.32,-14.62 897.27,-10.97 887.22,-7.62 887.32,-14.62"/>
</a>
</g>
</g>
<!-- Node26&#45;&gt;Node14 -->
<g id="edge47_Node000026_Node000014" class="edge">
<title>Node26&#45;&gt;Node14</title>
<g id="a_edge47_Node000026_Node000014"><a xlink:title=" ">
<path fill="none" stroke="#63b8ff" d="M461.85,-127.92C562.99,-118.63 922.42,-85.62 1039.19,-74.89"/>
<polygon fill="#63b8ff" stroke="#63b8ff" points="1039.2,-78.41 1048.84,-74.01 1038.56,-71.44 1039.2,-78.41"/>
</a>
</g>
</g>
<!-- Node26&#45;&gt;Node22 -->
<g id="edge43_Node000026_Node000022" class="edge">
<title>Node26&#45;&gt;Node22</title>
<g id="a_edge43_Node000026_Node000022"><a xlink:title=" ">
<path fill="none" stroke="#63b8ff" d="M408.52,-130.6C342.16,-130.55 172.12,-126.38 137.12,-85.75 128.28,-75.48 129.63,-66.54 137.12,-55.25 148.82,-37.64 168.98,-26.96 188.59,-20.49"/>
<polygon fill="#63b8ff" stroke="#63b8ff" points="189.32,-23.93 197.93,-17.74 187.35,-17.21 189.32,-23.93"/>
</a>
</g>
</g>
<!-- Node26&#45;&gt;Node23 -->
<g id="edge44_Node000026_Node000023" class="edge">
<title>Node26&#45;&gt;Node23</title>
<g id="a_edge44_Node000026_Node000023"><a xlink:title=" ">
<path fill="none" stroke="#63b8ff" d="M458.39,-121.3C483.44,-111.54 523.54,-95.9 552.12,-84.76"/>
<polygon fill="#63b8ff" stroke="#63b8ff" points="553.38,-88.02 561.43,-81.13 550.84,-81.5 553.38,-88.02"/>
</a>
</g>
</g>
<!-- Node26&#45;&gt;Node24 -->
<g id="edge46_Node000026_Node000024" class="edge">
<title>Node26&#45;&gt;Node24</title>
<g id="a_edge46_Node000026_Node000024"><a xlink:title=" ">
<path fill="none" stroke="#63b8ff" d="M440.14,-121.43C444.74,-113.22 451.71,-100.78 457.55,-90.37"/>
<polygon fill="#63b8ff" stroke="#63b8ff" points="460.49,-92.28 462.33,-81.85 454.38,-88.86 460.49,-92.28"/>
</a>
</g>
</g>
<!-- Node27 -->
<g id="Node000027" class="node">
<title>Node27</title>
<g id="a_Node000027"><a xlink:title=" ">
<polygon fill="#e0e0e0" stroke="#999999" points="90.25,-80.12 0,-80.12 0,-60.88 90.25,-60.88 90.25,-80.12"/>
<text text-anchor="middle" x="45.12" y="-66.62" font-family="Helvetica,sans-Serif" font-size="10.00">wayland&#45;cursor.h</text>
</a>
</g>
</g>
<!-- Node26&#45;&gt;Node27 -->
<g id="edge45_Node000026_Node000027" class="edge">
<title>Node26&#45;&gt;Node27</title>
<g id="a_edge45_Node000026_Node000027"><a xlink:title=" ">
<path fill="none" stroke="#63b8ff" d="M408.37,-127.71C351.89,-121.89 216.4,-106.82 104.12,-85.75 100,-84.98 95.73,-84.1 91.46,-83.17"/>
<polygon fill="#63b8ff" stroke="#63b8ff" points="92.25,-79.76 81.73,-80.95 90.7,-86.58 92.25,-79.76"/>
</a>
</g>
</g>
<!-- Node28 -->
<g id="Node000028" class="node">
<title>Node28</title>
<g id="a_Node000028"><a xlink:title=" ">
<polygon fill="#e0e0e0" stroke="#999999" points="248.25,-80.12 146,-80.12 146,-60.88 248.25,-60.88 248.25,-80.12"/>
<text text-anchor="middle" x="197.12" y="-66.62" font-family="Helvetica,sans-Serif" font-size="10.00">libgwater&#45;wayland.h</text>
</a>
</g>
</g>
<!-- Node26&#45;&gt;Node28 -->
<g id="edge48_Node000026_Node000028" class="edge">
<title>Node26&#45;&gt;Node28</title>
<g id="a_edge48_Node000026_Node000028"><a xlink:title=" ">
<path fill="none" stroke="#63b8ff" d="M408.29,-123.74C368.7,-113.94 294.05,-95.48 244.95,-83.33"/>
<polygon fill="#63b8ff" stroke="#63b8ff" points="245.99,-79.98 235.44,-80.98 244.31,-86.78 245.99,-79.98"/>
</a>
</g>
</g>
<!-- Node29 -->
<g id="Node000029" class="node">
<title>Node29</title>
<g id="a_Node000029"><a xlink:href="pool-buffer_8h.html" target="_top" xlink:title="Wayland rendering buffer pool.">
<polygon fill="white" stroke="#666666" points="373.75,-80.12 304.5,-80.12 304.5,-60.88 373.75,-60.88 373.75,-80.12"/>
<text text-anchor="middle" x="339.12" y="-66.62" font-family="Helvetica,sans-Serif" font-size="10.00">pool&#45;buffer.h</text>
</a>
</g>
</g>
<!-- Node26&#45;&gt;Node29 -->
<g id="edge49_Node000026_Node000029" class="edge">
<title>Node26&#45;&gt;Node29</title>
<g id="a_edge49_Node000026_Node000029"><a xlink:title=" ">
<path fill="none" stroke="#63b8ff" d="M420.54,-121.43C405.46,-112.18 381.64,-97.57 363.65,-86.54"/>
<polygon fill="#63b8ff" stroke="#63b8ff" points="365.49,-83.56 355.13,-81.32 361.83,-89.53 365.49,-83.56"/>
</a>
</g>
</g>
<!-- Node29&#45;&gt;Node6 -->
<g id="edge52_Node000029_Node000006" class="edge">
<title>Node29&#45;&gt;Node6</title>
<g id="a_edge52_Node000029_Node000006"><a xlink:title=" ">
<path fill="none" stroke="#63b8ff" d="M366.88,-60.38C373.76,-58.41 381.16,-56.54 388.12,-55.25 572.81,-21.11 797.94,-13.08 887.57,-11.2"/>
<polygon fill="#63b8ff" stroke="#63b8ff" points="887.36,-14.7 897.29,-11.01 887.23,-7.7 887.36,-14.7"/>
</a>
</g>
</g>
<!-- Node29&#45;&gt;Node21 -->
<g id="edge53_Node000029_Node000021" class="edge">
<title>Node29&#45;&gt;Node21</title>
<g id="a_edge53_Node000029_Node000021"><a xlink:title=" ">
<path fill="none" stroke="#63b8ff" d="M368.82,-60.45C375.16,-58.63 381.85,-56.8 388.12,-55.25 452.02,-39.45 527.43,-24.91 570.72,-16.96"/>
<polygon fill="#63b8ff" stroke="#63b8ff" points="571.09,-20.45 580.3,-15.21 569.83,-13.56 571.09,-20.45"/>
</a>
</g>
</g>
<!-- Node29&#45;&gt;Node22 -->
<g id="edge54_Node000029_Node000022" class="edge">
<title>Node29&#45;&gt;Node22</title>
<g id="a_edge54_Node000029_Node000022"><a xlink:title=" ">
<path fill="none" stroke="#63b8ff" d="M324.54,-60.56C309.46,-51.31 285.64,-36.7 267.65,-25.67"/>
<polygon fill="#63b8ff" stroke="#63b8ff" points="269.49,-22.69 259.13,-20.44 265.83,-28.65 269.49,-22.69"/>
</a>
</g>
</g>
<!-- Node30 -->
<g id="Node000030" class="node">
<title>Node30</title>
<g id="a_Node000030"><a xlink:title=" ">
<polygon fill="#e0e0e0" stroke="#999999" points="373.75,-19.25 304.5,-19.25 304.5,0 373.75,0 373.75,-19.25"/>
<text text-anchor="middle" x="339.12" y="-5.75" font-family="Helvetica,sans-Serif" font-size="10.00">cairo/cairo.h</text>
</a>
</g>
</g>
<!-- Node29&#45;&gt;Node30 -->
<g id="edge50_Node000029_Node000030" class="edge">
<title>Node29&#45;&gt;Node30</title>
<g id="a_edge50_Node000029_Node000030"><a xlink:title=" ">
<path fill="none" stroke="#63b8ff" d="M339.12,-60.56C339.12,-52.78 339.12,-41.2 339.12,-31.16"/>
<polygon fill="#63b8ff" stroke="#63b8ff" points="342.63,-31.16 339.13,-21.16 335.63,-31.16 342.63,-31.16"/>
</a>
</g>
</g>
<!-- Node31 -->
<g id="Node000031" class="node">
<title>Node31</title>
<g id="a_Node000031"><a xlink:title=" ">
<polygon fill="#e0e0e0" stroke="#999999" points="492.5,-19.25 391.75,-19.25 391.75,0 492.5,0 492.5,-19.25"/>
<text text-anchor="middle" x="442.12" y="-5.75" font-family="Helvetica,sans-Serif" font-size="10.00">pango/pangocairo.h</text>
</a>
</g>
</g>
<!-- Node29&#45;&gt;Node31 -->
<g id="edge51_Node000029_Node000031" class="edge">
<title>Node29&#45;&gt;Node31</title>
<g id="a_edge51_Node000029_Node000031"><a xlink:title=" ">
<path fill="none" stroke="#63b8ff" d="M354.77,-60.56C371.1,-51.22 396.99,-36.42 416.35,-25.36"/>
<polygon fill="#63b8ff" stroke="#63b8ff" points="418.08,-28.4 425.02,-20.4 414.6,-22.33 418.08,-28.4"/>
</a>
</g>
</g>
</g>
</svg>

<g id="navigator" transform="translate(0 0)" fill="#404254">
  <rect fill="#f2f5e9" fill-opacity="0.5" stroke="#606060" stroke-width=".5" x="0" y="0" width="60" height="60"/>
  <use id="zoomplus" xlink:href="#zoomPlus" x="17" y="9" onmousedown="handleZoom(evt,'in')"/>
  <use id="zoomminus" xlink:href="#zoomMin" x="42" y="9" onmousedown="handleZoom(evt,'out')"/>
  <use id="reset" xlink:href="#resetDef" x="30" y="36" onmousedown="handleReset()"/>
   <use id="arrowup" xlink:href="#arrowUp" x="0" y="0" onmousedown="handlePan(0,-1)"/>
  <use id="arrowright" xlink:href="#arrowRight" x="0" y="0" onmousedown="handlePan(1,0)"/>
  <use id="arrowdown" xlink:href="#arrowDown" x="0" y="0" onmousedown="handlePan(0,1)"/>
  <use id="arrowleft" xlink:href="#arrowLeft" x="0" y="0" onmousedown="handlePan(-1,0)"/>
</g>
<svg viewBox="0 0 15 15" width="100%" height="30px" preserveAspectRatio="xMaxYMin meet">
 <g id="arrow_out" transform="scale(0.3 0.3)">
  <a xlink:href="wl__seat_8c__incl_org.svg" target="_base">
   <rect id="button" ry="5" rx="5" y="6" x="6" height="38" width="38"
        fill="#f2f5e9" fill-opacity="0.5" stroke="#606060" stroke-width="1.0"/>
   <path id="arrow"
     d="M 11.500037,31.436501 C 11.940474,20.09759 22.043105,11.32322 32.158766,21.979434 L 37.068811,17.246167 C 37.068811,17.246167 37.088388,32 37.088388,32 L 22.160133,31.978069 C 22.160133,31.978069 26.997745,27.140456 26.997745,27.140456 C 18.528582,18.264221 13.291696,25.230495 11.500037,31.436501 z"
     style="fill:#404040;"/>
  </a>
 </g>
</svg>

<style type='text/css'>
<![CDATA[
[data-mouse-over-selected='false'] { opacity: 0.7; }
[data-mouse-over-selected='true']  { opacity: 1.0; }
]]>
</style>
<script type="application/ecmascript"><![CDATA[
document.addEventListener('DOMContentLoaded', (event) => {
  highlightEdges();
  highlightAdjacentNodes();
});
]]></script>
</svg>
