<?xml version="1.0" encoding="UTF-8" standalone="no"?>
<!DOCTYPE svg PUBLIC "-//W3C//DTD SVG 1.1//EN"
 "http://www.w3.org/Graphics/SVG/1.1/DTD/svg11.dtd">
<!-- Generated by graphviz version 12.2.1 (20241206.2353)
 -->
<!-- Title: src/x11/x.h Pages: 1 -->
<!--zoomable 138 -->

<svg id="main" version="1.1" xmlns="http://www.w3.org/2000/svg" xmlns:xlink="http://www.w3.org/1999/xlink" xml:space="preserve" onload="init(evt)">

<style type="text/css"><![CDATA[
.node, .edge {opacity: 0.7;}
.node.selected, .edge.selected {opacity: 1;}
.edge:hover path { stroke: red; }
.edge:hover polygon { stroke: red; fill: red; }
]]></style>

<defs>
  <circle id="rim" cx="0" cy="0" r="7"/>
  <circle id="rim2" cx="0" cy="0" r="3.5"/>
  <g id="zoomPlus">
    <use xlink:href="#rim" fill="#404040"><set attributeName="fill" to="#808080" begin="zoomplus.mouseover" end="zoomplus.mouseout"/></use>
    <path d="M-4,0h8M0,-4v8" fill="none" stroke="white" stroke-width="1.5" pointer-events="none"/>
  </g>
  <g id="zoomMin">
    <use xlink:href="#rim" fill="#404040"><set attributeName="fill" to="#808080" begin="zoomminus.mouseover" end="zoomminus.mouseout"/></use>
    <path d="M-4,0h8" fill="none" stroke="white" stroke-width="1.5" pointer-events="none"/>
  </g>
  <g id="arrowUp" transform="translate(30 24)">
    <use xlink:href="#rim"/>
    <path pointer-events="none" fill="none" stroke="white" stroke-width="1.5" d="M0,-3.0v7 M-2.5,-0.5L0,-3.0L2.5,-0.5"/>
  </g>
  <g id="arrowRight" transform="rotate(90) translate(36 -43)">
    <use xlink:href="#rim"/>
    <path pointer-events="none" fill="none" stroke="white" stroke-width="1.5" d="M0,-3.0v7 M-2.5,-0.5L0,-3.0L2.5,-0.5"/>
  </g>
  <g id="arrowDown" transform="rotate(180) translate(-30 -48)">
    <use xlink:href="#rim"/>
    <path pointer-events="none" fill="none" stroke="white" stroke-width="1.5" d="M0,-3.0v7 M-2.5,-0.5L0,-3.0L2.5,-0.5"/>
  </g>
  <g id="arrowLeft" transform="rotate(270) translate(-36 17)">
    <use xlink:href="#rim"/>
    <path pointer-events="none" fill="none" stroke="white" stroke-width="1.5" d="M0,-3.0v7 M-2.5,-0.5L0,-3.0L2.5,-0.5"/>
  </g>
  <g id="resetDef">
    <use xlink:href="#rim2" fill="#404040"><set attributeName="fill" to="#808080" begin="reset.mouseover" end="reset.mouseout"/></use>
  </g>
</defs>
<script type="application/ecmascript">
var viewWidth = 521;
var viewHeight = 138;
var sectionId = 'dynsection-0';
</script>
<script type="application/ecmascript" xlink:href="svg.min.js"/>
<svg id="graph" class="graph">
<g id="viewport">
<title>src/x11/x.h</title>
<!-- Node1 -->
<g id="Node000001" class="node">
<title>Node1</title>
<g id="a_Node000001"><a xlink:title="Xorg output wrapper.">
<polygon fill="#999999" stroke="#666666" points="228.62,-129.75 164.62,-129.75 164.62,-110.5 228.62,-110.5 228.62,-129.75"/>
<text text-anchor="middle" x="196.62" y="-116.25" font-family="Helvetica,sans-Serif" font-size="10.00">src/x11/x.h</text>
</a>
</g>
</g>
<!-- Node2 -->
<g id="Node000002" class="node">
<title>Node2</title>
<g id="a_Node000002"><a xlink:title=" ">
<polygon fill="#e0e0e0" stroke="#999999" points="45.25,-19.25 0,-19.25 0,0 45.25,0 45.25,-19.25"/>
<text text-anchor="middle" x="22.62" y="-5.75" font-family="Helvetica,sans-Serif" font-size="10.00">cairo.h</text>
</a>
</g>
</g>
<!-- Node1&#45;&gt;Node2 -->
<g id="edge1_Node000001_Node000002" class="edge">
<title>Node1&#45;&gt;Node2</title>
<g id="a_edge1_Node000001_Node000002"><a xlink:title=" ">
<path fill="none" stroke="#63b8ff" d="M164.45,-119.73C127.56,-118.56 67.91,-110.67 34.62,-74.5 23.86,-62.8 21.31,-44.64 21.19,-30.66"/>
<polygon fill="#63b8ff" stroke="#63b8ff" points="24.68,-30.95 21.55,-20.83 17.69,-30.69 24.68,-30.95"/>
</a>
</g>
</g>
<!-- Node3 -->
<g id="Node000003" class="node">
<title>Node3</title>
<g id="a_Node000003"><a xlink:title=" ">
<polygon fill="#e0e0e0" stroke="#999999" points="116.25,-19.25 77,-19.25 77,0 116.25,0 116.25,-19.25"/>
<text text-anchor="middle" x="96.62" y="-5.75" font-family="Helvetica,sans-Serif" font-size="10.00">glib.h</text>
</a>
</g>
</g>
<!-- Node1&#45;&gt;Node3 -->
<g id="edge2_Node000001_Node000003" class="edge">
<title>Node1&#45;&gt;Node3</title>
<g id="a_edge2_Node000001_Node000003"><a xlink:title=" ">
<path fill="none" stroke="#63b8ff" d="M188.44,-110.25C171.89,-92.28 134.17,-51.36 112.58,-27.94"/>
<polygon fill="#63b8ff" stroke="#63b8ff" points="115.3,-25.72 105.95,-20.74 110.15,-30.46 115.3,-25.72"/>
</a>
</g>
</g>
<!-- Node4 -->
<g id="Node000004" class="node">
<title>Node4</title>
<g id="a_Node000004"><a xlink:title=" ">
<polygon fill="#e0e0e0" stroke="#999999" points="197.5,-19.25 141.75,-19.25 141.75,0 197.5,0 197.5,-19.25"/>
<text text-anchor="middle" x="169.62" y="-5.75" font-family="Helvetica,sans-Serif" font-size="10.00">stdbool.h</text>
</a>
</g>
</g>
<!-- Node1&#45;&gt;Node4 -->
<g id="edge3_Node000001_Node000004" class="edge">
<title>Node1&#45;&gt;Node4</title>
<g id="a_edge3_Node000001_Node000004"><a xlink:title=" ">
<path fill="none" stroke="#63b8ff" d="M194.42,-110.25C190.1,-92.92 180.48,-54.23 174.57,-30.49"/>
<polygon fill="#63b8ff" stroke="#63b8ff" points="178.04,-29.95 172.23,-21.1 171.25,-31.64 178.04,-29.95"/>
</a>
</g>
</g>
<!-- Node5 -->
<g id="Node000005" class="node">
<title>Node5</title>
<g id="a_Node000005"><a xlink:title=" ">
<polygon fill="#e0e0e0" stroke="#999999" points="444,-74.5 307.25,-74.5 307.25,-55.25 444,-55.25 444,-74.5"/>
<text text-anchor="middle" x="375.62" y="-61" font-family="Helvetica,sans-Serif" font-size="10.00">X11/extensions/scrnsaver.h</text>
</a>
</g>
</g>
<!-- Node1&#45;&gt;Node5 -->
<g id="edge4_Node000001_Node000005" class="edge">
<title>Node1&#45;&gt;Node5</title>
<g id="a_edge4_Node000001_Node000005"><a xlink:title=" ">
<path fill="none" stroke="#63b8ff" d="M226.99,-110.09C256.43,-101.33 301.33,-87.98 334.08,-78.23"/>
<polygon fill="#63b8ff" stroke="#63b8ff" points="335.07,-81.59 343.66,-75.38 333.08,-74.88 335.07,-81.59"/>
</a>
</g>
</g>
<!-- Node6 -->
<g id="Node000006" class="node">
<title>Node6</title>
<g id="a_Node000006"><a xlink:title=" ">
<polygon fill="#e0e0e0" stroke="#999999" points="512.88,-74.5 462.38,-74.5 462.38,-55.25 512.88,-55.25 512.88,-74.5"/>
<text text-anchor="middle" x="487.62" y="-61" font-family="Helvetica,sans-Serif" font-size="10.00">X11/X.h</text>
</a>
</g>
</g>
<!-- Node1&#45;&gt;Node6 -->
<g id="edge5_Node000001_Node000006" class="edge">
<title>Node1&#45;&gt;Node6</title>
<g id="a_edge5_Node000001_Node000006"><a xlink:title=" ">
<path fill="none" stroke="#63b8ff" d="M229.09,-114.2C275.83,-106.96 365.01,-92.54 451.04,-74.7"/>
<polygon fill="#63b8ff" stroke="#63b8ff" points="451.51,-78.18 460.58,-72.7 450.07,-71.33 451.51,-78.18"/>
</a>
</g>
</g>
<!-- Node7 -->
<g id="Node000007" class="node">
<title>Node7</title>
<g id="a_Node000007"><a xlink:title=" ">
<polygon fill="#e0e0e0" stroke="#999999" points="292.75,-19.25 232.5,-19.25 232.5,0 292.75,0 292.75,-19.25"/>
<text text-anchor="middle" x="262.62" y="-5.75" font-family="Helvetica,sans-Serif" font-size="10.00">X11/Xlib.h</text>
</a>
</g>
</g>
<!-- Node1&#45;&gt;Node7 -->
<g id="edge6_Node000001_Node000007" class="edge">
<title>Node1&#45;&gt;Node7</title>
<g id="a_edge6_Node000001_Node000007"><a xlink:title=" ">
<path fill="none" stroke="#63b8ff" d="M218.89,-110.05C233.56,-102.79 251.65,-91.05 260.62,-74.5 267.84,-61.19 267.93,-43.93 266.44,-30.71"/>
<polygon fill="#63b8ff" stroke="#63b8ff" points="269.93,-30.37 264.95,-21.02 263.02,-31.44 269.93,-30.37"/>
</a>
</g>
</g>
<!-- Node8 -->
<g id="Node000008" class="node">
<title>Node8</title>
<g id="a_Node000008"><a xlink:href="output_8h.html" target="_top" xlink:title="Generic graphics backend wrapper.">
<polygon fill="white" stroke="#666666" points="103.75,-74.5 43.5,-74.5 43.5,-55.25 103.75,-55.25 103.75,-74.5"/>
<text text-anchor="middle" x="73.62" y="-61" font-family="Helvetica,sans-Serif" font-size="10.00">../output.h</text>
</a>
</g>
</g>
<!-- Node1&#45;&gt;Node8 -->
<g id="edge7_Node000001_Node000008" class="edge">
<title>Node1&#45;&gt;Node8</title>
<g id="a_edge7_Node000001_Node000008"><a xlink:title=" ">
<path fill="none" stroke="#63b8ff" d="M175.76,-110.09C156.32,-101.68 127.08,-89.02 104.86,-79.4"/>
<polygon fill="#63b8ff" stroke="#63b8ff" points="106.55,-76.31 95.98,-75.55 103.77,-82.74 106.55,-76.31"/>
</a>
</g>
</g>
<!-- Node9 -->
<g id="Node000009" class="node">
<title>Node9</title>
<g id="a_Node000009"><a xlink:href="screen_8h.html" target="_top" xlink:title="Xorg screen managment.">
<polygon fill="white" stroke="#666666" points="251.38,-74.5 197.88,-74.5 197.88,-55.25 251.38,-55.25 251.38,-74.5"/>
<text text-anchor="middle" x="224.62" y="-61" font-family="Helvetica,sans-Serif" font-size="10.00">screen.h</text>
</a>
</g>
</g>
<!-- Node1&#45;&gt;Node9 -->
<g id="edge11_Node000001_Node000009" class="edge">
<title>Node1&#45;&gt;Node9</title>
<g id="a_edge11_Node000001_Node000009"><a xlink:title=" ">
<path fill="none" stroke="#63b8ff" d="M201.25,-110.33C204.87,-103.44 210.05,-93.59 214.62,-84.91"/>
<polygon fill="#63b8ff" stroke="#63b8ff" points="217.64,-86.68 219.2,-76.2 211.44,-83.42 217.64,-86.68"/>
</a>
</g>
</g>
<!-- Node8&#45;&gt;Node2 -->
<g id="edge10_Node000008_Node000002" class="edge">
<title>Node8&#45;&gt;Node2</title>
<g id="a_edge10_Node000008_Node000002"><a xlink:title=" ">
<path fill="none" stroke="#63b8ff" d="M65.2,-55.08C58.09,-47.65 47.68,-36.79 38.94,-27.66"/>
<polygon fill="#63b8ff" stroke="#63b8ff" points="41.72,-25.5 32.28,-20.7 36.67,-30.35 41.72,-25.5"/>
</a>
</g>
</g>
<!-- Node8&#45;&gt;Node3 -->
<g id="edge9_Node000008_Node000003" class="edge">
<title>Node8&#45;&gt;Node3</title>
<g id="a_edge9_Node000008_Node000003"><a xlink:title=" ">
<path fill="none" stroke="#63b8ff" d="M77.42,-55.08C80.37,-48.26 84.56,-38.56 88.28,-29.95"/>
<polygon fill="#63b8ff" stroke="#63b8ff" points="91.39,-31.57 92.14,-21 84.97,-28.79 91.39,-31.57"/>
</a>
</g>
</g>
<!-- Node8&#45;&gt;Node4 -->
<g id="edge8_Node000008_Node000004" class="edge">
<title>Node8&#45;&gt;Node4</title>
<g id="a_edge8_Node000008_Node000004"><a xlink:title=" ">
<path fill="none" stroke="#63b8ff" d="M89.91,-54.84C104.53,-46.73 126.25,-34.68 143.33,-25.21"/>
<polygon fill="#63b8ff" stroke="#63b8ff" points="144.89,-28.35 151.94,-20.44 141.49,-22.23 144.89,-28.35"/>
</a>
</g>
</g>
<!-- Node9&#45;&gt;Node4 -->
<g id="edge12_Node000009_Node000004" class="edge">
<title>Node9&#45;&gt;Node4</title>
<g id="a_edge12_Node000009_Node000004"><a xlink:title=" ">
<path fill="none" stroke="#63b8ff" d="M215.54,-55.08C207.79,-47.57 196.41,-36.56 186.93,-27.38"/>
<polygon fill="#63b8ff" stroke="#63b8ff" points="189.61,-25.1 179.99,-20.66 184.74,-30.13 189.61,-25.1"/>
</a>
</g>
</g>
<!-- Node9&#45;&gt;Node7 -->
<g id="edge13_Node000009_Node000007" class="edge">
<title>Node9&#45;&gt;Node7</title>
<g id="a_edge13_Node000009_Node000007"><a xlink:title=" ">
<path fill="none" stroke="#63b8ff" d="M230.9,-55.08C235.98,-47.96 243.32,-37.68 249.66,-28.8"/>
<polygon fill="#63b8ff" stroke="#63b8ff" points="252.37,-31.01 255.33,-20.84 246.68,-26.95 252.37,-31.01"/>
</a>
</g>
</g>
</g>
</svg>

<g id="navigator" transform="translate(0 0)" fill="#404254">
  <rect fill="#f2f5e9" fill-opacity="0.5" stroke="#606060" stroke-width=".5" x="0" y="0" width="60" height="60"/>
  <use id="zoomplus" xlink:href="#zoomPlus" x="17" y="9" onmousedown="handleZoom(evt,'in')"/>
  <use id="zoomminus" xlink:href="#zoomMin" x="42" y="9" onmousedown="handleZoom(evt,'out')"/>
  <use id="reset" xlink:href="#resetDef" x="30" y="36" onmousedown="handleReset()"/>
   <use id="arrowup" xlink:href="#arrowUp" x="0" y="0" onmousedown="handlePan(0,-1)"/>
  <use id="arrowright" xlink:href="#arrowRight" x="0" y="0" onmousedown="handlePan(1,0)"/>
  <use id="arrowdown" xlink:href="#arrowDown" x="0" y="0" onmousedown="handlePan(0,1)"/>
  <use id="arrowleft" xlink:href="#arrowLeft" x="0" y="0" onmousedown="handlePan(-1,0)"/>
</g>
<svg viewBox="0 0 15 15" width="100%" height="30px" preserveAspectRatio="xMaxYMin meet">
 <g id="arrow_out" transform="scale(0.3 0.3)">
  <a xlink:href="x_8h__incl_org.svg" target="_base">
   <rect id="button" ry="5" rx="5" y="6" x="6" height="38" width="38"
        fill="#f2f5e9" fill-opacity="0.5" stroke="#606060" stroke-width="1.0"/>
   <path id="arrow"
     d="M 11.500037,31.436501 C 11.940474,20.09759 22.043105,11.32322 32.158766,21.979434 L 37.068811,17.246167 C 37.068811,17.246167 37.088388,32 37.088388,32 L 22.160133,31.978069 C 22.160133,31.978069 26.997745,27.140456 26.997745,27.140456 C 18.528582,18.264221 13.291696,25.230495 11.500037,31.436501 z"
     style="fill:#404040;"/>
  </a>
 </g>
</svg>

<style type='text/css'>
<![CDATA[
[data-mouse-over-selected='false'] { opacity: 0.7; }
[data-mouse-over-selected='true']  { opacity: 1.0; }
]]>
</style>
<script type="application/ecmascript"><![CDATA[
document.addEventListener('DOMContentLoaded', (event) => {
  highlightEdges();
  highlightAdjacentNodes();
});
]]></script>
</svg>
