<?xml version="1.0" encoding="UTF-8" standalone="no"?>
<!DOCTYPE svg PUBLIC "-//W3C//DTD SVG 1.1//EN"
 "http://www.w3.org/Graphics/SVG/1.1/DTD/svg11.dtd">
<!-- Generated by graphviz version 12.2.1 (20241206.2353)
 -->
<!-- Title: src/wayland/wl.h Pages: 1 -->
<svg width="216pt" height="94pt"
 viewBox="0.00 0.00 216.12 93.75" xmlns="http://www.w3.org/2000/svg" xmlns:xlink="http://www.w3.org/1999/xlink">
<g id="graph0" class="graph" transform="scale(1 1) rotate(0) translate(4 89.75)">
<title>src/wayland/wl.h</title>
<!-- Node1 -->
<g id="Node000001" class="node">
<title>Node1</title>
<g id="a_Node000001"><a xlink:title="Wayland window managment.">
<polygon fill="#999999" stroke="#666666" points="151.12,-85.75 61.62,-85.75 61.62,-66.5 151.12,-66.5 151.12,-85.75"/>
<text text-anchor="middle" x="106.38" y="-72.25" font-family="Helvetica,sans-Serif" font-size="10.00">src/wayland/wl.h</text>
</a>
</g>
</g>
<!-- Node2 -->
<g id="Node000002" class="node">
<title>Node2</title>
<g id="a_Node000002"><a xlink:href="foreign__toplevel_8c.html" target="_top" xlink:title=" ">
<polygon fill="white" stroke="#666666" points="100.75,-30.5 0,-30.5 0,0 100.75,0 100.75,-30.5"/>
<text text-anchor="start" x="8" y="-17" font-family="Helvetica,sans-Serif" font-size="10.00">src/wayland/foreign</text>
<text text-anchor="middle" x="50.38" y="-5.75" font-family="Helvetica,sans-Serif" font-size="10.00">_toplevel.c</text>
</a>
</g>
</g>
<!-- Node1&#45;&gt;Node2 -->
<g id="edge1_Node000001_Node000002" class="edge">
<title>Node1&#45;&gt;Node2</title>
<g id="a_edge1_Node000001_Node000002"><a xlink:title=" ">
<path fill="none" stroke="#63b8ff" d="M90.06,-57.98C81.86,-49.35 72.02,-39.01 64.2,-30.78"/>
<polygon fill="#63b8ff" stroke="#63b8ff" points="87.4,-60.25 96.83,-65.09 92.47,-55.43 87.4,-60.25"/>
</a>
</g>
</g>
<!-- Node3 -->
<g id="Node000003" class="node">
<title>Node3</title>
<g id="a_Node000003"><a xlink:href="wl_8c.html" target="_top" xlink:title=" ">
<polygon fill="white" stroke="#666666" points="208.12,-24.88 118.62,-24.88 118.62,-5.63 208.12,-5.63 208.12,-24.88"/>
<text text-anchor="middle" x="163.38" y="-11.38" font-family="Helvetica,sans-Serif" font-size="10.00">src/wayland/wl.c</text>
</a>
</g>
</g>
<!-- Node1&#45;&gt;Node3 -->
<g id="edge2_Node000001_Node000003" class="edge">
<title>Node1&#45;&gt;Node3</title>
<g id="a_edge2_Node000001_Node000003"><a xlink:title=" ">
<path fill="none" stroke="#63b8ff" d="M122.97,-57.98C133.33,-47.29 146.24,-33.95 154.64,-25.28"/>
<polygon fill="#63b8ff" stroke="#63b8ff" points="120.53,-55.48 116.08,-65.1 125.56,-60.35 120.53,-55.48"/>
</a>
</g>
</g>
</g>
</svg>
