<?xml version="1.0" encoding="UTF-8" standalone="no"?>
<!DOCTYPE svg PUBLIC "-//W3C//DTD SVG 1.1//EN"
 "http://www.w3.org/Graphics/SVG/1.1/DTD/svg11.dtd">
<!-- Generated by graphviz version 12.2.1 (20241206.2353)
 -->
<!-- Title: src/settings_data.h Pages: 1 -->
<svg width="747pt" height="359pt"
 viewBox="0.00 0.00 747.00 358.75" xmlns="http://www.w3.org/2000/svg" xmlns:xlink="http://www.w3.org/1999/xlink">
<g id="graph0" class="graph" transform="scale(1 1) rotate(0) translate(4 354.75)">
<title>src/settings_data.h</title>
<!-- Node1 -->
<g id="Node000001" class="node">
<title>Node1</title>
<g id="a_Node000001"><a xlink:title="List of all the valid settings and values.">
<polygon fill="#999999" stroke="#666666" points="375.62,-350.75 276.38,-350.75 276.38,-331.5 375.62,-331.5 375.62,-350.75"/>
<text text-anchor="middle" x="326" y="-337.25" font-family="Helvetica,sans-Serif" font-size="10.00">src/settings_data.h</text>
</a>
</g>
</g>
<!-- Node2 -->
<g id="Node000002" class="node">
<title>Node2</title>
<g id="a_Node000002"><a xlink:title=" ">
<polygon fill="#e0e0e0" stroke="#999999" points="117.62,-185 66.38,-185 66.38,-165.75 117.62,-165.75 117.62,-185"/>
<text text-anchor="middle" x="92" y="-171.5" font-family="Helvetica,sans-Serif" font-size="10.00">stddef.h</text>
</a>
</g>
</g>
<!-- Node1&#45;&gt;Node2 -->
<g id="edge1_Node000001_Node000002" class="edge">
<title>Node1&#45;&gt;Node2</title>
<g id="a_edge1_Node000001_Node000002"><a xlink:title=" ">
<path fill="none" stroke="#63b8ff" d="M276.15,-331.72C242.7,-324.86 198.28,-313.33 162,-295.5 125.48,-277.55 107.12,-276.68 89,-240.25 82.26,-226.69 83.55,-209.45 86.23,-196.29"/>
<polygon fill="#63b8ff" stroke="#63b8ff" points="89.61,-197.21 88.64,-186.66 82.82,-195.51 89.61,-197.21"/>
</a>
</g>
</g>
<!-- Node3 -->
<g id="Node000003" class="node">
<title>Node3</title>
<g id="a_Node000003"><a xlink:title=" ">
<polygon fill="#e0e0e0" stroke="#999999" points="710.5,-129.75 601.5,-129.75 601.5,-110.5 710.5,-110.5 710.5,-129.75"/>
<text text-anchor="middle" x="656" y="-116.25" font-family="Helvetica,sans-Serif" font-size="10.00">pango/pango&#45;layout.h</text>
</a>
</g>
</g>
<!-- Node1&#45;&gt;Node3 -->
<g id="edge2_Node000001_Node000003" class="edge">
<title>Node1&#45;&gt;Node3</title>
<g id="a_edge2_Node000001_Node000003"><a xlink:title=" ">
<path fill="none" stroke="#63b8ff" d="M346.29,-331.1C364.66,-322.66 392.25,-309.31 415,-295.5 501.05,-243.26 595.79,-169.48 636.09,-137.24"/>
<polygon fill="#63b8ff" stroke="#63b8ff" points="638.13,-140.09 643.73,-131.1 633.75,-134.64 638.13,-140.09"/>
</a>
</g>
</g>
<!-- Node4 -->
<g id="Node000004" class="node">
<title>Node4</title>
<g id="a_Node000004"><a xlink:href="option__parser_8h.html" target="_top" xlink:title="Parser for settings and cmdline arguments.">
<polygon fill="white" stroke="#666666" points="253.38,-295.5 170.62,-295.5 170.62,-276.25 253.38,-276.25 253.38,-295.5"/>
<text text-anchor="middle" x="212" y="-282" font-family="Helvetica,sans-Serif" font-size="10.00">option_parser.h</text>
</a>
</g>
</g>
<!-- Node1&#45;&gt;Node4 -->
<g id="edge3_Node000001_Node000004" class="edge">
<title>Node1&#45;&gt;Node4</title>
<g id="a_edge3_Node000001_Node000004"><a xlink:title=" ">
<path fill="none" stroke="#63b8ff" d="M306.66,-331.09C288.89,-322.79 262.28,-310.36 241.8,-300.79"/>
<polygon fill="#63b8ff" stroke="#63b8ff" points="243.35,-297.65 232.8,-296.59 240.38,-304 243.35,-297.65"/>
</a>
</g>
</g>
<!-- Node14 -->
<g id="Node000014" class="node">
<title>Node14</title>
<g id="a_Node000014"><a xlink:href="settings_8h.html" target="_top" xlink:title="Type definitions for settings.">
<polygon fill="white" stroke="#666666" points="355.38,-240.25 296.62,-240.25 296.62,-221 355.38,-221 355.38,-240.25"/>
<text text-anchor="middle" x="326" y="-226.75" font-family="Helvetica,sans-Serif" font-size="10.00">settings.h</text>
</a>
</g>
</g>
<!-- Node1&#45;&gt;Node14 -->
<g id="edge32_Node000001_Node000014" class="edge">
<title>Node1&#45;&gt;Node14</title>
<g id="a_edge32_Node000001_Node000014"><a xlink:title=" ">
<path fill="none" stroke="#63b8ff" d="M326,-331.25C326,-314 326,-275.58 326,-251.81"/>
<polygon fill="#63b8ff" stroke="#63b8ff" points="329.5,-252.14 326,-242.14 322.5,-252.14 329.5,-252.14"/>
</a>
</g>
</g>
<!-- Node16 -->
<g id="Node000016" class="node">
<title>Node16</title>
<g id="a_Node000016"><a xlink:href="rules_8h.html" target="_top" xlink:title="Rules managment and helpers.">
<polygon fill="white" stroke="#666666" points="405.62,-295.5 360.38,-295.5 360.38,-276.25 405.62,-276.25 405.62,-295.5"/>
<text text-anchor="middle" x="383" y="-282" font-family="Helvetica,sans-Serif" font-size="10.00">rules.h</text>
</a>
</g>
</g>
<!-- Node1&#45;&gt;Node16 -->
<g id="edge33_Node000001_Node000016" class="edge">
<title>Node1&#45;&gt;Node16</title>
<g id="a_edge33_Node000001_Node000016"><a xlink:title=" ">
<path fill="none" stroke="#63b8ff" d="M335.67,-331.09C343.74,-323.55 355.47,-312.6 365.22,-303.48"/>
<polygon fill="#63b8ff" stroke="#63b8ff" points="367.45,-306.19 372.37,-296.81 362.67,-301.08 367.45,-306.19"/>
</a>
</g>
</g>
<!-- Node5 -->
<g id="Node000005" class="node">
<title>Node5</title>
<g id="a_Node000005"><a xlink:title=" ">
<polygon fill="#e0e0e0" stroke="#999999" points="456.62,-19.25 417.38,-19.25 417.38,0 456.62,0 456.62,-19.25"/>
<text text-anchor="middle" x="437" y="-5.75" font-family="Helvetica,sans-Serif" font-size="10.00">glib.h</text>
</a>
</g>
</g>
<!-- Node4&#45;&gt;Node5 -->
<g id="edge4_Node000004_Node000005" class="edge">
<title>Node4&#45;&gt;Node5</title>
<g id="a_edge4_Node000004_Node000005"><a xlink:title=" ">
<path fill="none" stroke="#63b8ff" d="M219.49,-275.75C251.72,-236.46 379.02,-81.3 422.42,-28.4"/>
<polygon fill="#63b8ff" stroke="#63b8ff" points="425.12,-30.63 428.75,-20.68 419.7,-26.19 425.12,-30.63"/>
</a>
</g>
</g>
<!-- Node6 -->
<g id="Node000006" class="node">
<title>Node6</title>
<g id="a_Node000006"><a xlink:title=" ">
<polygon fill="#e0e0e0" stroke="#999999" points="255.88,-19.25 200.12,-19.25 200.12,0 255.88,0 255.88,-19.25"/>
<text text-anchor="middle" x="228" y="-5.75" font-family="Helvetica,sans-Serif" font-size="10.00">stdbool.h</text>
</a>
</g>
</g>
<!-- Node4&#45;&gt;Node6 -->
<g id="edge5_Node000004_Node000006" class="edge">
<title>Node4&#45;&gt;Node6</title>
<g id="a_edge5_Node000004_Node000006"><a xlink:title=" ">
<path fill="none" stroke="#63b8ff" d="M170.37,-281.92C108.63,-275.03 0,-252.14 0,-176.38 0,-176.38 0,-176.38 0,-119.12 0,-36.59 123.33,-16.77 188.58,-12.06"/>
<polygon fill="#63b8ff" stroke="#63b8ff" points="188.77,-15.55 198.53,-11.44 188.33,-8.57 188.77,-15.55"/>
</a>
</g>
</g>
<!-- Node7 -->
<g id="Node000007" class="node">
<title>Node7</title>
<g id="a_Node000007"><a xlink:title=" ">
<polygon fill="#e0e0e0" stroke="#999999" points="180.62,-185 135.38,-185 135.38,-165.75 180.62,-165.75 180.62,-185"/>
<text text-anchor="middle" x="158" y="-171.5" font-family="Helvetica,sans-Serif" font-size="10.00">stdio.h</text>
</a>
</g>
</g>
<!-- Node4&#45;&gt;Node7 -->
<g id="edge6_Node000004_Node000007" class="edge">
<title>Node4&#45;&gt;Node7</title>
<g id="a_edge6_Node000004_Node000007"><a xlink:title=" ">
<path fill="none" stroke="#63b8ff" d="M203.99,-275.88C196.65,-267.25 185.9,-253.6 179,-240.25 171.77,-226.26 166.33,-209.28 162.8,-196.34"/>
<polygon fill="#63b8ff" stroke="#63b8ff" points="166.24,-195.7 160.38,-186.88 159.46,-197.43 166.24,-195.7"/>
</a>
</g>
</g>
<!-- Node8 -->
<g id="Node000008" class="node">
<title>Node8</title>
<g id="a_Node000008"><a xlink:href="dunst_8h.html" target="_top" xlink:title="Main event loop logic.">
<polygon fill="white" stroke="#666666" points="236.12,-240.25 187.88,-240.25 187.88,-221 236.12,-221 236.12,-240.25"/>
<text text-anchor="middle" x="212" y="-226.75" font-family="Helvetica,sans-Serif" font-size="10.00">dunst.h</text>
</a>
</g>
</g>
<!-- Node4&#45;&gt;Node8 -->
<g id="edge7_Node000004_Node000008" class="edge">
<title>Node4&#45;&gt;Node8</title>
<g id="a_edge7_Node000004_Node000008"><a xlink:title=" ">
<path fill="none" stroke="#63b8ff" d="M212,-276.08C212,-269.57 212,-260.42 212,-252.12"/>
<polygon fill="#63b8ff" stroke="#63b8ff" points="215.5,-252.12 212,-242.12 208.5,-252.12 215.5,-252.12"/>
</a>
</g>
</g>
<!-- Node4&#45;&gt;Node14 -->
<g id="edge25_Node000004_Node000014" class="edge">
<title>Node4&#45;&gt;Node14</title>
<g id="a_edge25_Node000004_Node000014"><a xlink:title=" ">
<path fill="none" stroke="#63b8ff" d="M231.34,-275.84C249.11,-267.54 275.72,-255.11 296.2,-245.54"/>
<polygon fill="#63b8ff" stroke="#63b8ff" points="297.62,-248.75 305.2,-241.34 294.65,-242.4 297.62,-248.75"/>
</a>
</g>
</g>
<!-- Node15 -->
<g id="Node000015" class="node">
<title>Node15</title>
<g id="a_Node000015"><a xlink:href="ini_8h.html" target="_top" xlink:title="Parser for INI config files.">
<polygon fill="white" stroke="#666666" points="132,-240.25 98,-240.25 98,-221 132,-221 132,-240.25"/>
<text text-anchor="middle" x="115" y="-226.75" font-family="Helvetica,sans-Serif" font-size="10.00">ini.h</text>
</a>
</g>
</g>
<!-- Node4&#45;&gt;Node15 -->
<g id="edge29_Node000004_Node000015" class="edge">
<title>Node4&#45;&gt;Node15</title>
<g id="a_edge29_Node000004_Node000015"><a xlink:title=" ">
<path fill="none" stroke="#63b8ff" d="M195.55,-275.84C180.77,-267.73 158.82,-255.68 141.57,-246.21"/>
<polygon fill="#63b8ff" stroke="#63b8ff" points="143.31,-243.18 132.86,-241.43 139.94,-249.31 143.31,-243.18"/>
</a>
</g>
</g>
<!-- Node8&#45;&gt;Node2 -->
<g id="edge11_Node000008_Node000002" class="edge">
<title>Node8&#45;&gt;Node2</title>
<g id="a_edge11_Node000008_Node000002"><a xlink:title=" ">
<path fill="none" stroke="#63b8ff" d="M191.64,-220.59C172.77,-212.22 144.41,-199.63 122.77,-190.03"/>
<polygon fill="#63b8ff" stroke="#63b8ff" points="124.4,-186.92 113.84,-186.07 121.56,-193.32 124.4,-186.92"/>
</a>
</g>
</g>
<!-- Node8&#45;&gt;Node5 -->
<g id="edge8_Node000008_Node000005" class="edge">
<title>Node8&#45;&gt;Node5</title>
<g id="a_edge8_Node000008_Node000005"><a xlink:title=" ">
<path fill="none" stroke="#63b8ff" d="M214.51,-220.54C222.88,-191.92 252.53,-102.75 309,-55.25 336.89,-31.79 377.89,-20.38 405.92,-15.03"/>
<polygon fill="#63b8ff" stroke="#63b8ff" points="406.32,-18.51 415.57,-13.35 405.12,-11.62 406.32,-18.51"/>
</a>
</g>
</g>
<!-- Node8&#45;&gt;Node6 -->
<g id="edge9_Node000008_Node000006" class="edge">
<title>Node8&#45;&gt;Node6</title>
<g id="a_edge9_Node000008_Node000006"><a xlink:title=" ">
<path fill="none" stroke="#63b8ff" d="M208.61,-220.63C199.25,-194.39 175.01,-115.92 195,-55.25 198.3,-45.23 204.82,-35.62 211.19,-27.9"/>
<polygon fill="#63b8ff" stroke="#63b8ff" points="213.61,-30.44 217.66,-20.65 208.39,-25.78 213.61,-30.44"/>
</a>
</g>
</g>
<!-- Node8&#45;&gt;Node7 -->
<g id="edge10_Node000008_Node000007" class="edge">
<title>Node8&#45;&gt;Node7</title>
<g id="a_edge10_Node000008_Node000007"><a xlink:title=" ">
<path fill="none" stroke="#63b8ff" d="M203.08,-220.83C195.55,-213.4 184.53,-202.54 175.27,-193.41"/>
<polygon fill="#63b8ff" stroke="#63b8ff" points="177.77,-190.95 168.19,-186.42 172.85,-195.94 177.77,-190.95"/>
</a>
</g>
</g>
<!-- Node9 -->
<g id="Node000009" class="node">
<title>Node9</title>
<g id="a_Node000009"><a xlink:href="notification_8h.html" target="_top" xlink:title="Notification type definitions.">
<polygon fill="white" stroke="#666666" points="460.75,-185 389.25,-185 389.25,-165.75 460.75,-165.75 460.75,-185"/>
<text text-anchor="middle" x="425" y="-171.5" font-family="Helvetica,sans-Serif" font-size="10.00">notification.h</text>
</a>
</g>
</g>
<!-- Node8&#45;&gt;Node9 -->
<g id="edge12_Node000008_Node000009" class="edge">
<title>Node8&#45;&gt;Node9</title>
<g id="a_edge12_Node000008_Node000009"><a xlink:title=" ">
<path fill="none" stroke="#63b8ff" d="M236.43,-223.52C270.81,-214.92 334.14,-199.09 377.86,-188.16"/>
<polygon fill="#63b8ff" stroke="#63b8ff" points="378.48,-191.61 387.33,-185.79 376.78,-184.82 378.48,-191.61"/>
</a>
</g>
</g>
<!-- Node9&#45;&gt;Node3 -->
<g id="edge15_Node000009_Node000003" class="edge">
<title>Node9&#45;&gt;Node3</title>
<g id="a_edge15_Node000009_Node000003"><a xlink:title=" ">
<path fill="none" stroke="#63b8ff" d="M461.09,-166.05C499.97,-157.09 562.09,-142.77 605.73,-132.71"/>
<polygon fill="#63b8ff" stroke="#63b8ff" points="606.25,-136.19 615.21,-130.53 604.68,-129.36 606.25,-136.19"/>
</a>
</g>
</g>
<!-- Node9&#45;&gt;Node5 -->
<g id="edge13_Node000009_Node000005" class="edge">
<title>Node9&#45;&gt;Node5</title>
<g id="a_edge13_Node000009_Node000005"><a xlink:title=" ">
<path fill="none" stroke="#63b8ff" d="M433.22,-165.26C440.28,-156.77 449.96,-143.39 454,-129.75 459.38,-111.6 448.63,-59.47 441.88,-30.55"/>
<polygon fill="#63b8ff" stroke="#63b8ff" points="445.31,-29.8 439.57,-20.89 438.5,-31.43 445.31,-29.8"/>
</a>
</g>
</g>
<!-- Node9&#45;&gt;Node6 -->
<g id="edge14_Node000009_Node000006" class="edge">
<title>Node9&#45;&gt;Node6</title>
<g id="a_edge14_Node000009_Node000006"><a xlink:title=" ">
<path fill="none" stroke="#63b8ff" d="M414.13,-165.34C382.17,-138.77 288.2,-60.66 247.34,-26.7"/>
<polygon fill="#63b8ff" stroke="#63b8ff" points="249.69,-24.1 239.76,-20.4 245.21,-29.49 249.69,-24.1"/>
</a>
</g>
</g>
<!-- Node10 -->
<g id="Node000010" class="node">
<title>Node10</title>
<g id="a_Node000010"><a xlink:title=" ">
<polygon fill="#e0e0e0" stroke="#999999" points="567.62,-19.25 522.38,-19.25 522.38,0 567.62,0 567.62,-19.25"/>
<text text-anchor="middle" x="545" y="-5.75" font-family="Helvetica,sans-Serif" font-size="10.00">cairo.h</text>
</a>
</g>
</g>
<!-- Node9&#45;&gt;Node10 -->
<g id="edge16_Node000009_Node000010" class="edge">
<title>Node9&#45;&gt;Node10</title>
<g id="a_edge16_Node000009_Node000010"><a xlink:title=" ">
<path fill="none" stroke="#63b8ff" d="M461.23,-172.79C491.54,-169.32 533.1,-159.09 554,-129.75 574.98,-100.29 563.2,-55.69 553.56,-30.25"/>
<polygon fill="#63b8ff" stroke="#63b8ff" points="556.86,-29.08 549.85,-21.14 550.38,-31.72 556.86,-29.08"/>
</a>
</g>
</g>
<!-- Node11 -->
<g id="Node000011" class="node">
<title>Node11</title>
<g id="a_Node000011"><a xlink:href="markup_8h.html" target="_top" xlink:title="Markup handling for notifications body.">
<polygon fill="white" stroke="#666666" points="445.25,-129.75 388.75,-129.75 388.75,-110.5 445.25,-110.5 445.25,-129.75"/>
<text text-anchor="middle" x="417" y="-116.25" font-family="Helvetica,sans-Serif" font-size="10.00">markup.h</text>
</a>
</g>
</g>
<!-- Node9&#45;&gt;Node11 -->
<g id="edge17_Node000009_Node000011" class="edge">
<title>Node9&#45;&gt;Node11</title>
<g id="a_edge17_Node000009_Node000011"><a xlink:title=" ">
<path fill="none" stroke="#63b8ff" d="M423.68,-165.58C422.69,-158.99 421.29,-149.71 420.03,-141.32"/>
<polygon fill="#63b8ff" stroke="#63b8ff" points="423.52,-140.97 418.57,-131.61 416.6,-142.01 423.52,-140.97"/>
</a>
</g>
</g>
<!-- Node12 -->
<g id="Node000012" class="node">
<title>Node12</title>
<g id="a_Node000012"><a xlink:href="draw_8h.html" target="_top" xlink:title="Layout and render notifications.">
<polygon fill="white" stroke="#666666" points="545.25,-129.75 500.75,-129.75 500.75,-110.5 545.25,-110.5 545.25,-129.75"/>
<text text-anchor="middle" x="523" y="-116.25" font-family="Helvetica,sans-Serif" font-size="10.00">draw.h</text>
</a>
</g>
</g>
<!-- Node9&#45;&gt;Node12 -->
<g id="edge18_Node000009_Node000012" class="edge">
<title>Node9&#45;&gt;Node12</title>
<g id="a_edge18_Node000009_Node000012"><a xlink:title=" ">
<path fill="none" stroke="#63b8ff" d="M441.62,-165.34C456.69,-157.16 479.14,-144.96 496.65,-135.44"/>
<polygon fill="#63b8ff" stroke="#63b8ff" points="497.85,-138.77 504.96,-130.93 494.51,-132.62 497.85,-138.77"/>
</a>
</g>
</g>
<!-- Node12&#45;&gt;Node6 -->
<g id="edge19_Node000012_Node000006" class="edge">
<title>Node12&#45;&gt;Node6</title>
<g id="a_edge19_Node000012_Node000006"><a xlink:title=" ">
<path fill="none" stroke="#63b8ff" d="M504.12,-110.16C476.25,-97.12 422.3,-72.57 375,-55.25 338.91,-42.03 296.88,-29.56 267.03,-21.18"/>
<polygon fill="#63b8ff" stroke="#63b8ff" points="268.25,-17.88 257.68,-18.58 266.37,-24.63 268.25,-17.88"/>
</a>
</g>
</g>
<!-- Node12&#45;&gt;Node10 -->
<g id="edge20_Node000012_Node000010" class="edge">
<title>Node12&#45;&gt;Node10</title>
<g id="a_edge20_Node000012_Node000010"><a xlink:title=" ">
<path fill="none" stroke="#63b8ff" d="M524.8,-110.25C528.3,-93 536.09,-54.58 540.91,-30.81"/>
<polygon fill="#63b8ff" stroke="#63b8ff" points="544.32,-31.61 542.87,-21.11 537.46,-30.22 544.32,-31.61"/>
</a>
</g>
</g>
<!-- Node13 -->
<g id="Node000013" class="node">
<title>Node13</title>
<g id="a_Node000013"><a xlink:href="output_8h.html" target="_top" xlink:title="Generic graphics backend wrapper.">
<polygon fill="white" stroke="#666666" points="516.62,-74.5 465.38,-74.5 465.38,-55.25 516.62,-55.25 516.62,-74.5"/>
<text text-anchor="middle" x="491" y="-61" font-family="Helvetica,sans-Serif" font-size="10.00">output.h</text>
</a>
</g>
</g>
<!-- Node12&#45;&gt;Node13 -->
<g id="edge21_Node000012_Node000013" class="edge">
<title>Node12&#45;&gt;Node13</title>
<g id="a_edge21_Node000012_Node000013"><a xlink:title=" ">
<path fill="none" stroke="#63b8ff" d="M517.72,-110.33C513.53,-103.36 507.52,-93.37 502.27,-84.62"/>
<polygon fill="#63b8ff" stroke="#63b8ff" points="505.33,-82.93 497.18,-76.16 499.33,-86.53 505.33,-82.93"/>
</a>
</g>
</g>
<!-- Node13&#45;&gt;Node5 -->
<g id="edge23_Node000013_Node000005" class="edge">
<title>Node13&#45;&gt;Node5</title>
<g id="a_edge23_Node000013_Node000005"><a xlink:title=" ">
<path fill="none" stroke="#63b8ff" d="M482.08,-55.08C474.55,-47.65 463.53,-36.79 454.27,-27.66"/>
<polygon fill="#63b8ff" stroke="#63b8ff" points="456.77,-25.2 447.19,-20.67 451.85,-30.19 456.77,-25.2"/>
</a>
</g>
</g>
<!-- Node13&#45;&gt;Node6 -->
<g id="edge22_Node000013_Node000006" class="edge">
<title>Node13&#45;&gt;Node6</title>
<g id="a_edge22_Node000013_Node000006"><a xlink:title=" ">
<path fill="none" stroke="#63b8ff" d="M465.3,-58.67C419.09,-49.31 321.68,-29.59 267.13,-18.55"/>
<polygon fill="#63b8ff" stroke="#63b8ff" points="268.15,-15.18 257.66,-16.63 266.76,-22.04 268.15,-15.18"/>
</a>
</g>
</g>
<!-- Node13&#45;&gt;Node10 -->
<g id="edge24_Node000013_Node000010" class="edge">
<title>Node13&#45;&gt;Node10</title>
<g id="a_edge24_Node000013_Node000010"><a xlink:title=" ">
<path fill="none" stroke="#63b8ff" d="M499.92,-55.08C507.45,-47.65 518.47,-36.79 527.73,-27.66"/>
<polygon fill="#63b8ff" stroke="#63b8ff" points="530.15,-30.19 534.81,-20.67 525.23,-25.2 530.15,-30.19"/>
</a>
</g>
</g>
<!-- Node14&#45;&gt;Node6 -->
<g id="edge26_Node000014_Node000006" class="edge">
<title>Node14&#45;&gt;Node6</title>
<g id="a_edge26_Node000014_Node000006"><a xlink:title=" ">
<path fill="none" stroke="#63b8ff" d="M322.04,-220.77C307.51,-188.3 256.95,-75.32 236.59,-29.83"/>
<polygon fill="#63b8ff" stroke="#63b8ff" points="239.8,-28.43 232.52,-20.73 233.41,-31.29 239.8,-28.43"/>
</a>
</g>
</g>
<!-- Node14&#45;&gt;Node9 -->
<g id="edge27_Node000014_Node000009" class="edge">
<title>Node14&#45;&gt;Node9</title>
<g id="a_edge27_Node000014_Node000009"><a xlink:title=" ">
<path fill="none" stroke="#63b8ff" d="M342.79,-220.59C358.01,-212.41 380.7,-200.21 398.38,-190.69"/>
<polygon fill="#63b8ff" stroke="#63b8ff" points="399.64,-193.99 406.79,-186.17 396.33,-187.82 399.64,-193.99"/>
</a>
</g>
</g>
<!-- Node14&#45;&gt;Node12 -->
<g id="edge28_Node000014_Node000012" class="edge">
<title>Node14&#45;&gt;Node12</title>
<g id="a_edge28_Node000014_Node000012"><a xlink:title=" ">
<path fill="none" stroke="#63b8ff" d="M355.73,-225.53C386.45,-220.18 434.75,-208.57 470,-185 487.74,-173.14 502.69,-153.63 512.14,-139.29"/>
<polygon fill="#63b8ff" stroke="#63b8ff" points="514.85,-141.55 517.21,-131.23 508.92,-137.83 514.85,-141.55"/>
</a>
</g>
</g>
<!-- Node15&#45;&gt;Node6 -->
<g id="edge30_Node000015_Node000006" class="edge">
<title>Node15&#45;&gt;Node6</title>
<g id="a_edge30_Node000015_Node000006"><a xlink:title=" ">
<path fill="none" stroke="#63b8ff" d="M97.71,-221.5C77.03,-210.52 46.44,-189.58 57,-165.75 86.51,-99.14 160.31,-48.92 200.64,-25.39"/>
<polygon fill="#63b8ff" stroke="#63b8ff" points="202.32,-28.46 209.28,-20.48 198.86,-22.38 202.32,-28.46"/>
</a>
</g>
</g>
<!-- Node15&#45;&gt;Node7 -->
<g id="edge31_Node000015_Node000007" class="edge">
<title>Node15&#45;&gt;Node7</title>
<g id="a_edge31_Node000015_Node000007"><a xlink:title=" ">
<path fill="none" stroke="#63b8ff" d="M122.1,-220.83C127.92,-213.63 136.33,-203.21 143.56,-194.26"/>
<polygon fill="#63b8ff" stroke="#63b8ff" points="146.23,-196.52 149.79,-186.54 140.79,-192.12 146.23,-196.52"/>
</a>
</g>
</g>
<!-- Node16&#45;&gt;Node5 -->
<g id="edge34_Node000016_Node000005" class="edge">
<title>Node16&#45;&gt;Node5</title>
<g id="a_edge34_Node000016_Node000005"><a xlink:title=" ">
<path fill="none" stroke="#63b8ff" d="M405.92,-277.81C407.64,-277.28 409.35,-276.76 411,-276.25 556.71,-231.63 739,-328.76 739,-176.38 739,-176.38 739,-176.38 739,-119.12 739,-62.01 545.28,-26.79 468.15,-15.02"/>
<polygon fill="#63b8ff" stroke="#63b8ff" points="468.72,-11.57 458.31,-13.56 467.69,-18.49 468.72,-11.57"/>
</a>
</g>
</g>
<!-- Node16&#45;&gt;Node6 -->
<g id="edge35_Node000016_Node000006" class="edge">
<title>Node16&#45;&gt;Node6</title>
<g id="a_edge35_Node000016_Node000006"><a xlink:title=" ">
<path fill="none" stroke="#63b8ff" d="M381.07,-275.96C378.18,-263.39 372.2,-239.89 364,-221 330.03,-142.7 316.86,-124.53 267,-55.25 260.1,-45.66 251.55,-35.7 244.21,-27.63"/>
<polygon fill="#63b8ff" stroke="#63b8ff" points="247,-25.49 237.63,-20.54 241.87,-30.25 247,-25.49"/>
</a>
</g>
</g>
<!-- Node16&#45;&gt;Node9 -->
<g id="edge36_Node000016_Node000009" class="edge">
<title>Node16&#45;&gt;Node9</title>
<g id="a_edge36_Node000016_Node000009"><a xlink:title=" ">
<path fill="none" stroke="#63b8ff" d="M386.44,-276C393.17,-258.59 408.26,-219.62 417.44,-195.91"/>
<polygon fill="#63b8ff" stroke="#63b8ff" points="420.62,-197.38 420.97,-186.79 414.1,-194.85 420.62,-197.38"/>
</a>
</g>
</g>
<!-- Node16&#45;&gt;Node14 -->
<g id="edge37_Node000016_Node000014" class="edge">
<title>Node16&#45;&gt;Node14</title>
<g id="a_edge37_Node000016_Node000014"><a xlink:title=" ">
<path fill="none" stroke="#63b8ff" d="M373.33,-275.84C365.26,-268.3 353.53,-257.35 343.78,-248.23"/>
<polygon fill="#63b8ff" stroke="#63b8ff" points="346.33,-245.83 336.63,-241.56 341.55,-250.94 346.33,-245.83"/>
</a>
</g>
</g>
</g>
</svg>
